<?xml version="1.0" encoding="UTF-8"?>
<svg id="textos" xmlns="http://www.w3.org/2000/svg" viewBox="0 0 492.26 135.27">
  <defs>
    <style>
      .cls-1 {
        fill: #5b1223;
        stroke: #5b1223;
        stroke-miterlimit: 10;
        stroke-width: 2px;
      }
    </style>
  </defs>
  <g>
    <path class="cls-1" d="M231.13,119.99c-.31.14-.55.4-.66.83-.11.42-.07.99.22,1.64.29.64.89,1.34,1.74,1.84.85.5,1.95.75,3.02.67.54-.02,1.22-.18,1.93-.47.72-.29,1.46-.73,2.12-1.31.67-.57,1.26-1.28,1.73-2.04.47-.76.82-1.58,1.06-2.37.23-.8.34-1.58.39-2.29.01-.35.02-.69,0-1-.02-.31-.04-.6-.08-.87-.04-.26-.08-.5-.13-.71-.05-.21-.11-.38-.15-.53-.1-.29-.2-.44-.27-.44-.07,0-.16.16-.28.43-.12.3-.26.68-.43,1.1-.09.22-.2.46-.31.72-.12.25-.24.51-.38.77-.28.52-.62,1.06-1,1.55-.39.49-.83.93-1.28,1.28-.45.36-.92.63-1.35.82-.43.19-.83.29-1.16.34-.08.02-.16.02-.23.03-.07,0-.14.02-.2.02-.06,0-.12,0-.17.02-.05,0-.1,0-.15,0-.36.02-.65.05-.94.06-.29.01-.6.02-.95-.02-.69-.07-1.47-.34-2.11-.06Z"/>
    <path class="cls-1" d="M241.87,125.74c1.92-4.36,2.44-10.48,2.5-11.29,0-.05.03-.09.07-.09l1.88-2.12c.25-.28.69-.28.94,0l1.88,2.12s.07.04.07.09c.06.81.5,6.46,2.5,11.29.02.04-3.87,6.97-4.74,8.42-.09.15-.26.15-.35,0-.87-1.45-4.76-8.39-4.74-8.42Z"/>
    <path class="cls-1" d="M262.69,119.99c.31.14.55.4.66.83.11.42.07.99-.22,1.64-.29.64-.89,1.34-1.74,1.84-.85.5-1.95.75-3.02.67-.54-.02-1.22-.18-1.94-.47-.72-.29-1.46-.73-2.12-1.31-.67-.57-1.26-1.28-1.73-2.04-.47-.76-.82-1.58-1.06-2.37-.23-.8-.34-1.58-.39-2.29-.01-.35-.02-.69,0-1,.02-.31.04-.6.08-.87.04-.26.08-.5.13-.71.05-.21.11-.38.15-.53.1-.29.2-.44.27-.44.07,0,.16.16.28.43.12.3.26.68.43,1.1.09.22.2.46.31.72.12.25.25.51.38.77.28.52.62,1.06,1,1.55.39.49.83.93,1.28,1.28.45.36.92.63,1.35.82.43.19.83.29,1.16.34.08.02.16.02.23.03.07,0,.14.02.2.02.06,0,.12,0,.18.02.05,0,.1,0,.15,0,.36.02.65.05.94.06.29.01.6.02.95-.02.69-.07,1.47-.34,2.11-.06Z"/>
    <path class="cls-1" d="M262.65,113.2c-.17-.2-.18-.53-.06-.96.12-.43.39-.97.74-1.62.19-.33.39-.68.6-1.05.11-.19.23-.38.35-.58.12-.2.24-.41.36-.62.26-.42.5-.88.78-1.34.25-.48.53-.97.78-1.49.51-1.04.97-2.17,1.29-3.36.14-.6.28-1.2.33-1.81.05-.31.04-.62.06-.93,0-.31,0-.62-.03-.94-.08-1.26-.42-2.56-.99-3.93-.59-1.36-1.41-2.78-2.43-4.2-1.01-1.43-2.52-3.28-4.51-5.37-1.99-2.1-4.45-4.42-7.17-6.93-2.72-2.52-5.7-5.2-8.6-8.24-.72-.76-1.44-1.54-2.13-2.36-.35-.41-.69-.83-1.03-1.26l-.25-.32-.26-.35c-.17-.23-.34-.46-.5-.7-1.27-1.91-2.24-3.96-2.88-6.04-.34-1.04-.57-2.09-.78-3.12-.18-1.04-.32-2.07-.37-3.09-.13-2.04-.04-4.02.26-5.88.58-3.72,1.92-6.94,3.51-9.33.39-.6.81-1.14,1.21-1.65.43-.49.82-.95,1.23-1.34.39-.41.81-.75,1.17-1.07.37-.31.74-.56,1.06-.8.67-.44,1.2-.75,1.59-.92.38-.18.6-.24.63-.19.03.04-.12.22-.41.51-.3.28-.73.7-1.26,1.24-.25.29-.54.59-.83.94-.28.36-.61.73-.9,1.17-.32.42-.61.91-.92,1.4-.29.52-.6,1.06-.86,1.65-1.11,2.35-1.92,5.36-2.03,8.68-.06,1.66.07,3.39.37,5.12.15.87.37,1.73.61,2.59.27.85.55,1.71.93,2.53.71,1.65,1.66,3.2,2.77,4.56.14.17.29.33.44.49l.22.24.24.25c.32.34.66.67,1,1.01.68.66,1.4,1.31,2.13,1.95,2.92,2.55,6.06,4.93,8.99,7.25,2.94,2.32,5.7,4.59,8.02,6.79,2.33,2.19,4.21,4.33,5.51,6.15,1.3,1.81,2.42,3.8,3.2,5.94.77,2.14,1.17,4.45,1.04,6.65-.02.55-.09,1.09-.16,1.61-.1.52-.18,1.04-.33,1.53-.25.99-.61,1.9-1,2.75-.8,1.68-1.77,3.03-2.74,4.14-.48.56-.98,1.04-1.45,1.49-.49.43-.94.83-1.4,1.16-.22.16-.44.32-.65.48-.21.15-.43.28-.63.41-.4.26-.78.47-1.14.65-.7.36-1.3.56-1.76.63-.46.07-.77,0-.94-.19Z"/>
    <path class="cls-1" d="M246.42,89.58c-.05.33-.62.55-1.65.65-1.03.05-2.53-.02-4.36-.62-.23-.08-.46-.16-.7-.24-.24-.09-.47-.2-.71-.31-.49-.21-.97-.5-1.48-.8-.98-.64-1.98-1.46-2.85-2.51-.87-1.04-1.6-2.31-2.11-3.68-.51-1.37-.8-2.85-.89-4.34-.09-1.49.01-3.43.47-5.56.46-2.13,1.25-4.47,2.41-6.8,1.17-2.37,2.67-4.56,4.13-6.75,1.46-2.18,2.91-4.34,3.95-6.57.52-1.11.98-2.23,1.29-3.36.31-1.12.56-2.25.64-3.33.21-2.17-.01-4.26-.12-6.05-.07-.89-.09-1.72-.1-2.45,0-.73.05-1.36.08-1.87.15-1.03.27-1.59.35-1.58.07,0,.13.58.19,1.58.07.5.14,1.11.25,1.8.13.7.26,1.48.46,2.35.35,1.74.86,3.83.92,6.29.08,2.44-.4,5.12-1.33,7.69-.91,2.59-2.24,5.03-3.5,7.35-1.27,2.32-2.52,4.55-3.35,6.63-.86,2.11-1.4,4.15-1.69,5.93-.28,1.78-.3,3.28-.23,4.39.13,2.23.75,4.16,1.74,5.66.49.75,1.08,1.4,1.69,1.98.32.27.62.56.96.79.16.12.32.25.48.36.16.11.33.21.49.32,1.29.83,2.49,1.39,3.32,1.88.84.45,1.31.85,1.27,1.18Z"/>
    <path class="cls-1" d="M231.09,47.88c-.22-.02-.41-.24-.56-.64-.08-.2-.14-.44-.2-.73-.05-.28-.08-.6-.1-.96-.07-1.42.17-3.4.97-5.45.41-1.01,1.21-2.62,2.44-4.25,1.21-1.64,2.86-3.23,4.54-4.5.42-.32.85-.61,1.26-.9.22-.14.45-.28.66-.41.22-.13.44-.23.65-.34.85-.41,1.62-.71,2.27-.98.64-.26,1.15-.49,1.51-.66.35-.18.56-.27.6-.23.03.03-.11.21-.39.52-.29.29-.74.67-1.32,1.09-.57.42-1.27.88-1.96,1.41-.17.14-.35.27-.51.41-.16.15-.33.3-.49.45-.33.34-.68.68-1.01,1.04-1.34,1.45-2.59,3.1-3.46,4.66-.89,1.55-1.44,2.99-1.79,3.86-.68,1.76-1.23,3.41-1.71,4.63-.12.31-.24.58-.36.83-.11.25-.22.46-.34.63-.23.35-.46.53-.68.52Z"/>
    <path class="cls-1" d="M230.72,113.2c-.17.2-.49.26-.94.19-.46-.07-1.05-.27-1.76-.63-.36-.17-.74-.39-1.14-.65-.2-.13-.41-.26-.63-.41-.21-.16-.43-.32-.66-.48-.46-.33-.91-.74-1.4-1.16-.47-.45-.97-.93-1.45-1.49-.97-1.11-1.94-2.47-2.74-4.14-.38-.84-.75-1.75-1-2.75-.14-.49-.23-1.01-.33-1.53-.07-.53-.14-1.06-.16-1.61-.13-2.2.27-4.51,1.04-6.65.78-2.14,1.9-4.13,3.2-5.94,1.3-1.82,3.18-3.96,5.5-6.16,2.32-2.21,5.07-4.48,8.01-6.8,2.93-2.33,6.06-4.71,8.98-7.26.73-.64,1.44-1.29,2.12-1.95.34-.33.68-.67,1-1.01l.24-.25.22-.24c.14-.16.29-.32.43-.49,1.11-1.36,2.06-2.9,2.76-4.55.37-.82.65-1.67.92-2.52.24-.86.46-1.72.61-2.59.3-1.73.43-3.46.37-5.11-.11-3.31-.91-6.31-2.02-8.66-.27-.59-.57-1.13-.86-1.65-.31-.5-.6-.98-.92-1.4-.29-.44-.62-.81-.9-1.17-.29-.35-.58-.65-.83-.94-.53-.54-.95-.97-1.25-1.25-.29-.29-.43-.47-.4-.52.03-.04.24.03.62.21.39.17.91.49,1.58.93.32.24.68.49,1.05.8.36.32.78.65,1.17,1.07.41.39.8.85,1.23,1.34.4.51.82,1.04,1.2,1.65,1.58,2.38,2.92,5.59,3.5,9.31.3,1.86.39,3.83.26,5.87-.05,1.02-.2,2.05-.37,3.09-.2,1.03-.43,2.08-.77,3.12-.64,2.08-1.6,4.12-2.87,6.03-.16.24-.33.47-.5.7l-.26.35-.25.32c-.33.43-.68.84-1.02,1.26-.69.82-1.41,1.6-2.13,2.36-2.89,3.04-5.87,5.72-8.59,8.25-2.72,2.51-5.18,4.84-7.16,6.94-1.99,2.09-3.5,3.95-4.51,5.37-1.03,1.42-1.85,2.84-2.43,4.2-.57,1.36-.91,2.67-.99,3.93-.03.32-.02.63-.03.94.02.31.02.62.06.93.05.61.19,1.22.33,1.81.32,1.19.78,2.32,1.29,3.36.25.52.53,1.02.78,1.49.28.47.52.93.78,1.34.12.21.24.42.36.62.12.2.23.39.35.58.21.36.41.71.6,1.05.35.65.61,1.19.74,1.62.12.43.11.76-.06.96Z"/>
    <path class="cls-1" d="M246.96,89.58c-.05-.33.42-.73,1.27-1.18.83-.49,2.03-1.04,3.32-1.88.16-.11.32-.21.49-.32.17-.11.32-.24.48-.36.33-.23.63-.52.96-.79.61-.58,1.2-1.23,1.69-1.98,1-1.5,1.61-3.43,1.74-5.66.07-1.11.05-2.61-.24-4.39-.29-1.77-.83-3.82-1.69-5.92-.83-2.08-2.09-4.3-3.36-6.62-1.27-2.32-2.6-4.76-3.51-7.35-.93-2.57-1.41-5.26-1.33-7.7.06-2.46.57-4.55.92-6.29.19-.87.33-1.66.46-2.35.11-.7.18-1.3.25-1.8.06-1,.13-1.57.21-1.58.07,0,.18.55.33,1.58.03.51.07,1.14.08,1.87-.01.72-.03,1.55-.1,2.45-.11,1.79-.33,3.88-.12,6.05.08,1.09.32,2.22.64,3.34.31,1.13.77,2.25,1.29,3.36,1.05,2.23,2.5,4.39,3.96,6.57,1.46,2.19,2.97,4.38,4.14,6.74,1.16,2.33,1.95,4.66,2.42,6.79.46,2.14.56,4.07.47,5.56-.09,1.49-.38,2.97-.89,4.34-.51,1.37-1.24,2.64-2.11,3.68-.87,1.05-1.86,1.88-2.85,2.51-.5.3-.99.59-1.48.8-.24.11-.48.23-.71.31-.23.08-.47.16-.7.24-1.82.59-3.33.67-4.36.62-1.04-.1-1.61-.33-1.65-.65Z"/>
    <path class="cls-1" d="M241.83,101.49c0-2.69,2.18-4.87,4.87-4.87s4.87,2.18,4.87,4.87-2.18,4.87-4.87,4.87-4.87-2.18-4.87-4.87Z"/>
    <path class="cls-1" d="M242.09,22.29c0-2.41,1.96-4.37,4.37-4.37s4.37,1.96,4.37,4.37-1.96,4.37-4.37,4.37-4.37-1.96-4.37-4.37Z"/>
    <path class="cls-1" d="M261.95,47.88c-.22.02-.45-.17-.68-.52-.11-.17-.23-.38-.34-.63-.12-.24-.24-.52-.36-.83-.48-1.22-1.03-2.87-1.71-4.63-.35-.88-.91-2.3-1.8-3.86-.88-1.56-2.13-3.2-3.47-4.65-.33-.36-.69-.7-1.02-1.04-.16-.15-.33-.3-.49-.45-.16-.14-.35-.28-.51-.41-.69-.53-1.39-.99-1.96-1.41-.58-.42-1.03-.8-1.32-1.1-.28-.31-.41-.49-.38-.53.03-.03.24.06.59.24.36.17.87.41,1.51.67.64.27,1.42.57,2.27.98.21.11.43.21.65.34.22.13.44.27.66.41.41.29.84.57,1.26.9,1.68,1.27,3.33,2.86,4.55,4.49,1.23,1.62,2.04,3.23,2.44,4.24.8,2.05,1.04,4.03.97,5.45-.02.36-.05.68-.1.96-.06.28-.12.53-.2.73-.15.4-.34.62-.56.64Z"/>
  </g>
  <g>
    <path class="cls-1" d="M343.61,37.99c-.18-.63-1.35-.88-2.99-.68-1.63.19-3.74.81-5.92,1.78-2.19.97-6.87,3.6-10.9,6.19-2.01,1.3-3.87,2.56-5.17,3.6-1.31,1.02-2.04,1.84-1.94,1.96.09.1,1.02-.32,2.54-.89,1.51-.58,3.6-1.34,5.82-2.15,4.44-1.62,9.44-3.39,11.59-4.35,2.15-.96,3.99-2.04,5.24-3.01,1.25-.97,1.91-1.81,1.73-2.45Z"/>
    <path class="cls-1" d="M485.55,46.72c.38-1.06.63-2.26.78-3.63.14-1.38.15-2.89-.08-4.47-.44-3.16-1.85-6.63-4.35-9.88-2.46-3.27-5.89-6.3-9.82-8.99-3.94-2.68-8.38-5.08-13.06-7.08-4.68-2.01-9.61-3.62-14.59-4.81-4.98-1.2-10.01-1.98-14.88-2.43-9.76-.87-18.87-.4-26.11.39-3.6.59-7.62,1.37-11.91,2.38-4.29,1.04-8.85,2.3-13.53,3.8-9.37,3-19.19,7.03-28.43,11.62-4.62,2.29-9.09,4.72-13.3,7.19-1.05.63-2.08,1.25-3.11,1.87-1,.6-1.98,1.25-2.95,1.89-1.96,1.3-3.86,2.55-5.7,3.77-7.36,4.88-13.78,8.87-18.28,11.46-6.11,3.52-12.11,6.61-17.79,9.02-5.68,2.4-11.05,4.12-15.81,4.79-2.38.32-4.59.41-6.55.15-.97-.11-1.88-.34-2.7-.58-.81-.28-1.54-.59-2.14-.97-1.22-.73-1.97-1.56-2.36-2.17-.38-.63-.47-1.01-.34-1.11.3-.25,1.29.84,3.51,1.57,2.19.77,5.7.78,9.95-.26,4.26-1.02,9.24-2.97,14.62-5.5,5.38-2.54,11.18-5.67,17.18-9.14,4.43-2.54,10.82-6.37,18.27-11.05,1.87-1.17,3.81-2.38,5.81-3.63,1.01-.62,2.04-1.26,3.12-1.88,1.06-.6,2.14-1.2,3.22-1.81,4.37-2.4,9-4.73,13.77-6.9,9.54-4.35,19.67-8.07,29.28-10.72,4.8-1.33,9.47-2.41,13.85-3.26,4.39-.83,8.48-1.43,12.13-1.83,7.25-1.18,16.45-2.07,26.46-1.59,5,.26,10.19.86,15.38,1.9,5.19,1.04,10.36,2.53,15.31,4.46,4.95,1.92,9.66,4.27,13.96,7.01,2.14,1.38,4.18,2.86,6.05,4.48,1.87,1.61,3.58,3.34,5.05,5.19,2.98,3.67,4.89,7.94,5.5,11.95.32,2,.34,3.91.17,5.64-.17,1.74-.51,3.37-1,4.73-1.28,3.75-3.56,7-6.36,9.38-1.4,1.2-2.89,2.22-4.46,3.02-1.57.79-3.18,1.42-4.8,1.83-1.63.4-3.28.67-4.92.66-1.64-.01-3.25-.26-4.74-.74-3-.95-5.41-2.89-6.87-5.13-.73-1.12-1.25-2.33-1.5-3.56-.25-1.22-.23-2.49.17-3.63.38-1.15,1.19-2.09,2.06-2.6.43-.29.88-.42,1.29-.57.21-.04.41-.08.61-.12.2-.04.39-.07.57-.07.74-.05,1.37.05,1.9.13.52.14.95.24,1.28.39.66.3.97.53.92.69-.04.16-.43.25-1.09.28-.33,0-.74.07-1.2.09-.46.07-.98.13-1.5.29-.14.03-.26.08-.39.14-.13.05-.26.11-.39.16-.23.16-.49.27-.67.48-.4.37-.68.85-.79,1.46-.23,1.22.31,2.96,1.51,4.43,1.19,1.48,3.01,2.73,5.21,3.26,1.1.27,2.28.38,3.51.33,1.23-.05,2.51-.32,3.8-.7,1.31-.38,2.58-.95,3.82-1.61,1.24-.67,2.41-1.53,3.49-2.49,2.18-1.93,3.92-4.49,4.9-7.36Z"/>
    <path class="cls-1" d="M400.83,4.95s-2.1-.52-5.94-1.39c-.97-.18-2.04-.38-3.22-.59-1.18-.21-2.46-.47-3.85-.63-1.39-.18-2.88-.38-4.45-.58-1.59-.13-3.27-.26-5.03-.41-.22-.02-.44-.03-.67-.05-.22,0-.45-.01-.68-.02-.45-.01-.91-.03-1.38-.04-.93-.02-1.88-.05-2.85-.08-.97-.05-1.96.02-2.97.03-1.01.03-2.04.06-3.08.09-.52,0-1.05.06-1.58.1-.53.05-1.07.09-1.61.14-1.08.1-2.18.18-3.29.3-1.11.16-2.23.32-3.37.49-.57.08-1.14.17-1.72.26-.58.08-1.15.23-1.73.34-1.16.24-2.33.49-3.52.74-.6.11-1.18.28-1.78.44-.59.16-1.19.33-1.79.49-.6.17-1.2.33-1.81.5l-.91.26-.9.31c-1.2.41-2.41.83-3.63,1.25l-.92.32-.9.37c-.6.25-1.21.5-1.81.75-.61.25-1.22.51-1.83.77l-.92.39-.9.44c-1.2.59-2.4,1.19-3.62,1.79-.3.15-.61.3-.91.46l-.88.51c-.59.34-1.18.68-1.78,1.02-.59.34-1.18.68-1.77,1.03-.29.17-.59.33-.88.52l-.85.56c-1.13.75-2.24,1.49-3.35,2.22l-.83.55-.79.59c-.53.4-1.05.79-1.58,1.19-1.04.79-2.09,1.56-3.09,2.36-3.96,3.21-7.6,6.4-11.12,9.34-3.51,2.95-6.89,5.67-10.16,8.03-3.27,2.37-6.44,4.4-9.46,6.01-6.01,3.3-11.44,4.83-15.25,5.48-1.91.31-3.42.45-4.45.51-1.03.05-1.57.08-1.57.08,0,0,.54.06,1.57.16,1.03.1,2.56.17,4.54.12,1.98-.08,4.41-.32,7.18-.91,1.39-.29,2.85-.69,4.4-1.15,1.53-.5,3.14-1.06,4.79-1.76,3.31-1.37,6.79-3.18,10.37-5.35,3.58-2.17,7.24-4.73,10.98-7.52,3.74-2.79,7.54-5.82,11.49-8.83.99-.74,2.01-1.44,3.02-2.18.51-.36,1.01-.73,1.52-1.1l.77-.55.8-.51c1.06-.69,2.13-1.38,3.21-2.07l.81-.53c.27-.17.56-.32.83-.49.56-.32,1.12-.64,1.68-.97.56-.32,1.12-.65,1.68-.97l.84-.48c.28-.15.57-.29.86-.44,1.14-.58,2.27-1.16,3.4-1.73l.84-.43.86-.38c.57-.25,1.14-.51,1.71-.76.57-.25,1.13-.51,1.7-.76l.84-.38.86-.33c1.14-.44,2.27-.87,3.4-1.3l.84-.32.85-.28c.57-.18,1.13-.36,1.69-.54.56-.18,1.12-.36,1.67-.54.55-.18,1.1-.37,1.67-.5,1.12-.3,2.22-.59,3.31-.88,8.75-2.27,16.95-3.08,23.85-3.37,1.73-.04,3.38-.08,4.94-.12,1.56.03,3.04.05,4.42.08,1.38,0,2.67.1,3.85.16,1.18.06,2.27.12,3.25.17,3.88.33,6.06.52,6.06.52Z"/>
    <path class="cls-1" d="M306.68,16.42c-.09-1.23-1.69-2.25-4.28-2.77-2.58-.52-6.18-.51-10.05.43-.97.24-2.22.62-3.66,1.17-1.44.54-3.06,1.25-4.73,2.15-1.68.9-3.41,1.98-5.06,3.24-1.65,1.26-3.21,2.7-4.54,4.25-2.7,3.08-4.38,6.54-5.09,9.13-.74,2.6-.75,4.29-.5,4.37.26.09,1.07-1.37,2.56-3.35,1.47-1.99,3.76-4.38,6.58-6.24,2.81-1.89,6.12-3.26,9.15-4.17,1.51-.46,2.95-.82,4.23-1.11,1.27-.3,2.37-.52,3.21-.73,3.34-.81,6.41-1.77,8.66-2.83,2.24-1.07,3.65-2.28,3.55-3.52Z"/>
    <g>
      <g>
        <path class="cls-1" d="M463.05,23.35c.43-.54.58-1.21.47-1.86-.1-.66-.52-1.26-1.14-1.69-.63-.41-1.37-.51-2-.37-.65.16-1.19.58-1.52,1.19-.32.61-.38,1.29-.23,1.88.14.62.49,1.13,1.01,1.48.52.36,1.16.43,1.76.34.61-.11,1.21-.43,1.64-.98Z"/>
        <path class="cls-1" d="M467,27.07c.43-.38.67-.91.67-1.46,0-.54-.22-1.11-.65-1.54-.45-.42-1.02-.63-1.56-.62-.55.02-1.07.27-1.45.71-.37.44-.54.98-.51,1.5.01.53.2,1.03.6,1.39.38.38.88.57,1.41.57.52,0,1.06-.16,1.49-.55Z"/>
        <path class="cls-1" d="M469.89,30.83c.41-.27.67-.68.75-1.14.08-.46-.04-.95-.34-1.37-.29-.42-.76-.66-1.21-.72-.46-.06-.93.06-1.3.38-.76.64-.88,1.71-.34,2.45.27.38.68.6,1.12.67.43.08.91,0,1.32-.27Z"/>
        <path class="cls-1" d="M471.85,34.17c.67-.34.91-1.17.54-1.86-.4-.68-1.24-.9-1.88-.5-.64.4-.85,1.22-.49,1.84.34.63,1.16.87,1.83.53Z"/>
        <path class="cls-1" d="M473.24,37.16c.53-.22.78-.83.54-1.38-.23-.55-.87-.78-1.39-.53-.52.25-.73.86-.52,1.37.22.51.84.75,1.37.54Z"/>
      </g>
      <g>
        <path class="cls-1" d="M453.93,18.34c.47-1.05,1.72-1.51,2.75-1.05.26.12.47.27.65.47.18.19.35.44.45.7.21.51.2,1.08-.05,1.6-.25.52-.68.89-1.16,1.09-.25.1-.48.15-.76.14-.28,0-.57-.07-.83-.19-1.07-.48-1.51-1.71-1.05-2.76Z"/>
        <path class="cls-1" d="M449.53,16.55c.31-.93,1.37-1.41,2.32-1.03.95.38,1.37,1.43.98,2.33-.39.9-1.42,1.31-2.29.97-.87-.35-1.32-1.34-1.01-2.27Z"/>
        <path class="cls-1" d="M445.79,15.57c.05-.37.26-.69.56-.88.3-.19.7-.29,1.09-.18.79.18,1.22.97,1,1.68-.22.72-.95,1.12-1.62.97-.34-.09-.61-.28-.79-.57-.18-.29-.28-.64-.23-1.01Z"/>
        <path class="cls-1" d="M442.52,15.7c-.09-.27-.05-.55.12-.78.16-.23.46-.44.79-.45.69-.08,1.19.43,1.16,1-.03.58-.46,1.01-.93,1.07-.25,0-.45-.04-.66-.19-.2-.15-.39-.37-.48-.65Z"/>
      </g>
    </g>
  </g>
  <g>
    <path class="cls-1" d="M148.65,37.85c.18-.63,1.35-.88,2.99-.68,1.63.19,3.74.81,5.92,1.78,2.19.97,6.87,3.6,10.9,6.19,2.01,1.3,3.87,2.56,5.17,3.6,1.31,1.02,2.04,1.84,1.94,1.96-.09.1-1.02-.32-2.54-.89-1.51-.58-3.6-1.34-5.82-2.15-4.44-1.62-9.44-3.39-11.59-4.35-2.15-.96-3.99-2.04-5.24-3.01-1.25-.97-1.91-1.81-1.73-2.44Z"/>
    <path class="cls-1" d="M6.71,46.58c-.38-1.06-.63-2.26-.78-3.63-.14-1.38-.15-2.89.08-4.47.44-3.16,1.85-6.63,4.35-9.88,2.46-3.27,5.89-6.3,9.82-8.99,3.94-2.68,8.38-5.08,13.06-7.08,4.68-2.01,9.61-3.62,14.59-4.81,4.98-1.2,10.01-1.98,14.88-2.43,9.76-.87,18.87-.4,26.11.39,3.6.59,7.62,1.37,11.91,2.38,4.29,1.04,8.85,2.3,13.53,3.8,9.37,3,19.19,7.03,28.43,11.62,4.62,2.29,9.09,4.72,13.3,7.19,1.05.63,2.08,1.25,3.11,1.87,1,.6,1.98,1.25,2.95,1.89,1.96,1.3,3.86,2.55,5.7,3.77,7.36,4.88,13.78,8.87,18.28,11.46,6.11,3.52,12.11,6.61,17.79,9.02,5.68,2.4,11.05,4.12,15.81,4.79,2.38.32,4.59.41,6.55.15.97-.11,1.88-.34,2.7-.58.81-.28,1.54-.59,2.14-.97,1.22-.73,1.97-1.56,2.36-2.17.38-.63.47-1.01.34-1.11-.3-.25-1.29.84-3.51,1.57-2.19.77-5.7.78-9.95-.26-4.26-1.02-9.24-2.97-14.62-5.5-5.38-2.54-11.18-5.67-17.18-9.14-4.43-2.54-10.82-6.37-18.27-11.05-1.87-1.17-3.81-2.38-5.81-3.63-1.01-.62-2.04-1.26-3.12-1.88-1.06-.6-2.14-1.2-3.22-1.81-4.37-2.4-9-4.73-13.77-6.9-9.54-4.35-19.67-8.07-29.28-10.72-4.8-1.33-9.47-2.41-13.85-3.26-4.39-.83-8.48-1.43-12.13-1.83-7.25-1.18-16.45-2.07-26.46-1.59-5,.26-10.19.86-15.38,1.9-5.19,1.04-10.36,2.53-15.31,4.46-4.95,1.92-9.66,4.27-13.96,7.01-2.14,1.38-4.18,2.86-6.05,4.48-1.87,1.61-3.58,3.34-5.05,5.19-2.98,3.67-4.89,7.94-5.5,11.95-.32,2-.34,3.91-.17,5.64.17,1.74.51,3.37,1,4.73,1.28,3.75,3.56,7,6.36,9.38,1.4,1.2,2.89,2.22,4.46,3.02,1.57.79,3.18,1.42,4.8,1.83,1.63.4,3.28.67,4.92.66,1.64-.01,3.25-.26,4.74-.74,3-.95,5.41-2.89,6.87-5.13.73-1.12,1.25-2.33,1.5-3.56.25-1.22.23-2.49-.17-3.63-.38-1.15-1.19-2.09-2.06-2.6-.43-.29-.88-.42-1.29-.57-.21-.04-.41-.08-.61-.12-.2-.04-.39-.07-.57-.07-.74-.05-1.37.05-1.9.13-.52.14-.95.24-1.28.39-.66.3-.97.53-.92.69.04.16.43.25,1.09.28.33,0,.74.07,1.2.09.46.07.98.13,1.5.29.14.03.26.08.39.14.13.05.26.11.39.16.22.16.49.27.67.48.4.37.68.85.79,1.46.23,1.22-.31,2.96-1.51,4.43-1.19,1.48-3.01,2.73-5.21,3.26-1.1.27-2.28.38-3.51.33-1.23-.05-2.51-.32-3.8-.7-1.31-.38-2.58-.95-3.82-1.61-1.24-.67-2.41-1.53-3.49-2.49-2.18-1.93-3.92-4.49-4.9-7.36Z"/>
    <path class="cls-1" d="M91.43,4.81s2.1-.52,5.94-1.39c.97-.18,2.04-.38,3.22-.59,1.18-.21,2.46-.47,3.85-.63,1.39-.18,2.88-.38,4.45-.58,1.59-.13,3.27-.26,5.03-.41.22-.02.44-.03.67-.05.22,0,.45-.01.68-.02.45-.01.91-.03,1.37-.04.93-.02,1.88-.05,2.85-.08.97-.05,1.96.02,2.97.03,1.01.03,2.04.06,3.08.09.52,0,1.05.06,1.58.1.53.05,1.07.09,1.61.14,1.08.1,2.18.18,3.29.3,1.11.16,2.23.32,3.37.49.57.08,1.14.17,1.72.26.58.08,1.15.23,1.73.34,1.16.24,2.33.49,3.52.74.6.11,1.18.28,1.78.44.59.16,1.19.33,1.79.49.6.17,1.2.33,1.81.5l.91.26.9.31c1.2.41,2.41.83,3.63,1.25l.92.32.9.37c.6.25,1.21.5,1.81.75.61.25,1.22.51,1.83.77l.92.39.9.44c1.2.59,2.4,1.19,3.62,1.79.3.15.61.3.91.46l.88.51c.59.34,1.18.68,1.78,1.02.59.34,1.18.68,1.77,1.03.29.17.59.33.88.52l.85.56c1.13.75,2.24,1.49,3.35,2.22l.83.55.79.59c.53.4,1.05.79,1.58,1.19,1.04.79,2.09,1.56,3.09,2.36,3.96,3.21,7.6,6.4,11.12,9.34,3.51,2.95,6.89,5.66,10.16,8.03,3.27,2.37,6.44,4.4,9.46,6.01,6.01,3.3,11.44,4.83,15.25,5.48,1.91.31,3.42.45,4.45.51,1.03.05,1.57.08,1.57.08,0,0-.54.06-1.57.16-1.03.1-2.56.17-4.54.12-1.98-.08-4.41-.32-7.18-.91-1.39-.29-2.85-.69-4.4-1.15-1.53-.5-3.14-1.06-4.79-1.76-3.31-1.37-6.79-3.18-10.37-5.35-3.58-2.17-7.24-4.73-10.98-7.52-3.74-2.79-7.54-5.82-11.49-8.83-.99-.74-2.01-1.44-3.02-2.18-.51-.36-1.01-.73-1.52-1.1l-.77-.55-.8-.51c-1.06-.69-2.13-1.38-3.21-2.07l-.81-.53c-.27-.17-.56-.32-.83-.49-.56-.32-1.12-.64-1.68-.97-.56-.32-1.12-.65-1.68-.97l-.84-.49c-.28-.15-.57-.29-.86-.44-1.14-.58-2.27-1.16-3.4-1.73l-.84-.43-.86-.38c-.57-.25-1.14-.51-1.71-.76-.57-.25-1.13-.51-1.7-.76l-.84-.38-.86-.33c-1.14-.44-2.27-.87-3.4-1.3l-.84-.32-.85-.28c-.57-.18-1.13-.36-1.69-.54-.56-.18-1.12-.36-1.67-.54-.55-.18-1.1-.37-1.67-.5-1.12-.3-2.22-.59-3.31-.88-8.75-2.27-16.95-3.08-23.85-3.37-1.73-.04-3.38-.08-4.94-.12-1.56.03-3.04.05-4.42.08-1.38,0-2.67.1-3.85.16-1.18.06-2.27.12-3.25.17-3.88.33-6.06.52-6.06.52Z"/>
    <path class="cls-1" d="M185.58,16.29c.09-1.23,1.69-2.25,4.28-2.77,2.58-.52,6.18-.51,10.05.43.97.24,2.22.62,3.66,1.17,1.44.54,3.06,1.25,4.73,2.15,1.68.9,3.41,1.98,5.06,3.24,1.65,1.26,3.21,2.7,4.54,4.25,2.7,3.08,4.38,6.54,5.09,9.13.74,2.6.75,4.29.5,4.37-.26.09-1.07-1.37-2.56-3.35-1.47-1.99-3.76-4.38-6.58-6.24-2.81-1.89-6.12-3.26-9.15-4.17-1.51-.46-2.95-.82-4.23-1.11-1.27-.3-2.37-.52-3.21-.73-3.34-.81-6.41-1.77-8.66-2.83-2.24-1.07-3.65-2.28-3.55-3.52Z"/>
    <g>
      <g>
        <path class="cls-1" d="M29.21,23.22c-.43-.54-.58-1.21-.47-1.86.1-.66.52-1.26,1.14-1.69.63-.41,1.37-.51,2-.37.65.16,1.19.58,1.52,1.19.32.61.38,1.29.23,1.88-.14.62-.49,1.13-1.01,1.48-.52.36-1.16.43-1.76.34-.61-.11-1.21-.43-1.64-.98Z"/>
        <path class="cls-1" d="M25.26,26.93c-.43-.38-.67-.91-.67-1.46,0-.54.22-1.11.65-1.54.45-.42,1.02-.63,1.56-.62.55.02,1.07.27,1.45.71.37.44.54.98.51,1.5-.01.53-.2,1.03-.6,1.39-.38.38-.88.57-1.41.57-.52,0-1.06-.16-1.49-.55Z"/>
        <path class="cls-1" d="M22.37,30.7c-.41-.27-.67-.68-.75-1.14-.08-.46.04-.95.34-1.37.29-.42.76-.66,1.21-.72.46-.06.93.06,1.3.38.76.64.88,1.71.34,2.45-.27.38-.68.6-1.12.67-.43.08-.91,0-1.32-.27Z"/>
        <path class="cls-1" d="M20.41,34.03c-.67-.34-.91-1.17-.54-1.86.4-.68,1.24-.9,1.88-.5.64.4.85,1.22.49,1.84-.34.63-1.16.87-1.83.53Z"/>
        <path class="cls-1" d="M19.03,37.02c-.53-.22-.78-.83-.54-1.38.23-.55.87-.78,1.39-.53.52.25.73.86.52,1.37-.22.51-.84.75-1.37.54Z"/>
      </g>
      <g>
        <path class="cls-1" d="M38.34,18.2c-.47-1.05-1.72-1.51-2.75-1.05-.26.12-.47.27-.65.47-.18.19-.35.44-.45.7-.21.51-.2,1.08.05,1.6.25.52.68.89,1.16,1.09.25.1.48.15.76.14.28,0,.57-.07.83-.19,1.07-.48,1.51-1.71,1.05-2.76Z"/>
        <path class="cls-1" d="M42.73,16.41c-.31-.93-1.37-1.41-2.32-1.03-.95.38-1.37,1.43-.98,2.33.39.9,1.42,1.31,2.29.97.87-.35,1.32-1.34,1.01-2.27Z"/>
        <path class="cls-1" d="M46.48,15.44c-.05-.37-.26-.69-.56-.88-.3-.19-.7-.29-1.09-.18-.79.18-1.22.97-1,1.68.22.72.95,1.12,1.62.97.34-.09.61-.28.79-.57.18-.29.28-.64.23-1.01Z"/>
        <path class="cls-1" d="M49.74,15.57c.09-.27.05-.55-.12-.78-.16-.23-.46-.44-.79-.45-.69-.08-1.19.43-1.16,1,.03.58.46,1.01.93,1.07.25,0,.45-.04.66-.19.2-.15.39-.37.48-.65Z"/>
      </g>
    </g>
  </g>
</svg>