<?xml version="1.0" encoding="UTF-8"?>
<svg id="textos" xmlns="http://www.w3.org/2000/svg" xmlns:xlink="http://www.w3.org/1999/xlink" viewBox="0 0 359.25 119.69">
  <defs>
    <style>
      .cls-1 {
        filter: url(#drop-shadow-3);
      }

      .cls-2 {
        fill: #5b1223;
      }
    </style>
    <filter id="drop-shadow-3" x="0" y="0" width="359.25" height="119.69" filterUnits="userSpaceOnUse">
      <feOffset dx="0" dy="10"/>
      <feGaussianBlur result="blur" stdDeviation="9"/>
      <feFlood flood-color="#000" flood-opacity=".8"/>
      <feComposite in2="blur" operator="in"/>
      <feComposite in="SourceGraphic"/>
    </filter>
  </defs>
  <g class="cls-1">
    <path class="cls-2" d="M191.31,82.47s.58.42,1.72,1.25c1.14.83,2.84,2.05,5.09,3.63,4.52,3.12,11.22,7.71,20.34,12.75,4.57,2.5,9.74,5.12,15.58,7.54,2.92,1.21,6.01,2.36,9.26,3.45,3.26,1.05,6.67,2.05,10.25,2.88,3.58.82,7.32,1.52,11.21,2.04,3.89.49,7.92.8,12.08.88,1.04,0,2.09.05,3.14.02,1.05-.02,2.11-.04,3.18-.06,1.07-.06,2.14-.11,3.22-.17,1.08-.05,2.17-.17,3.26-.26,4.37-.4,8.83-1.04,13.36-1.92,4.51-.89,9.06-2.11,13.57-3.71,4.51-1.59,8.96-3.65,13.22-6.17,2.11-1.29,4.19-2.67,6.17-4.22,1.97-1.55,3.87-3.23,5.64-5.06,3.5-3.68,6.57-7.91,8.73-12.67,2.18-4.74,3.56-9.94,3.94-15.33.07-.67.07-1.35.1-2.03.04-.68.03-1.36.02-2.04v-1.02c-.02-.34-.05-.68-.07-1.02-.05-.68-.09-1.36-.14-2.04-.3-2.71-.83-5.4-1.62-8.04-.84-2.62-1.93-5.17-3.28-7.62-1.33-2.45-2.99-4.75-4.82-6.93-1.84-2.17-3.88-4.21-6.11-6.08-2.23-1.87-4.62-3.58-7.14-5.15-5.02-3.15-10.57-5.65-16.36-7.6-5.8-1.93-11.88-3.31-18.05-3.85-6.24-.56-12.58-.48-18.93.24-6.34.76-12.68,2.16-18.92,4.1-12.5,3.93-24.6,9.98-36.52,16.83-11.94,6.84-23.76,14.5-36.14,21.74-3.09,1.78-6.16,3.56-9.23,5.34-3.05,1.77-6.07,3.57-9.09,5.37-6.04,3.59-12.05,7.19-18.07,10.69-12.05,6.99-24.15,13.62-36.55,19.22-6.2,2.8-12.47,5.34-18.83,7.5-6.36,2.16-12.81,3.93-19.33,5.14-6.52,1.21-13.12,1.85-19.67,1.72-.82-.02-1.64-.03-2.45-.06-.82-.06-1.63-.13-2.44-.19l-1.22-.09-.61-.05-.61-.08c-.81-.11-1.61-.22-2.42-.33l-1.21-.17c-.4-.05-.79-.15-1.19-.22-.79-.16-1.58-.32-2.37-.47-1.59-.27-3.13-.74-4.69-1.15-1.56-.37-3.07-.96-4.59-1.47l-1.13-.39c-.37-.14-.74-.31-1.11-.47-.74-.32-1.47-.63-2.21-.95-.74-.29-1.45-.69-2.16-1.05-.71-.37-1.42-.74-2.12-1.11-.69-.39-1.36-.84-2.04-1.26l-1.01-.64-.5-.32c-.16-.11-.32-.24-.48-.35-.64-.48-1.28-.95-1.91-1.43-.31-.24-.65-.46-.94-.73l-.89-.79c-.59-.53-1.18-1.05-1.77-1.58-.55-.57-1.09-1.14-1.64-1.71l-.81-.86c-.26-.3-.5-.61-.75-.91-.49-.61-.98-1.22-1.48-1.83-.46-.63-.89-1.29-1.33-1.93l-.65-.97c-.22-.32-.39-.67-.59-1.01-.38-.68-.76-1.35-1.14-2.03-.35-.69-.66-1.4-.98-2.09l-.48-1.05c-.16-.35-.27-.72-.41-1.07-.27-.72-.53-1.43-.79-2.15-.23-.72-.43-1.46-.64-2.19l-.31-1.09c-.1-.36-.16-.74-.24-1.1-.15-.74-.31-1.47-.46-2.21-.12-.74-.21-1.48-.32-2.22l-.15-1.11c-.05-.37-.06-.74-.09-1.11-.05-.74-.1-1.48-.16-2.21-.03-.74-.02-1.47-.03-2.2,0-.73-.02-1.46.04-2.19.04-.73.08-1.45.12-2.18.04-.72.15-1.44.23-2.16l.13-1.07.06-.54.09-.53c.13-.71.25-1.41.37-2.11,2.22-11.19,7.47-21.35,15.01-28.89,3.74-3.66,7.71-6.88,11.85-9.69,1.05-.68,2.07-1.39,3.13-2.03,1.07-.62,2.13-1.24,3.18-1.86,2.16-1.14,4.29-2.27,6.49-3.19,4.36-1.91,8.76-3.47,13.17-4.52,1.09-.31,2.2-.51,3.29-.74,1.09-.22,2.17-.47,3.27-.61,1.09-.16,2.17-.33,3.24-.49,1.08-.11,2.15-.21,3.21-.32,1.06-.13,2.12-.16,3.17-.21.53-.02,1.05-.05,1.57-.07.52-.03,1.04-.05,1.56-.04,1.04,0,2.06.01,3.09.02h.76s.76.05.76.05c.51.03,1.01.06,1.51.09.5.03,1,.06,1.5.09l.74.05.74.08c.98.11,1.96.22,2.92.32.97.08,1.91.28,2.86.42.94.16,1.88.29,2.8.47,7.37,1.44,14.02,3.63,19.9,6.16,5.89,2.53,11,5.38,15.44,8.17,8.81,5.72,14.9,11.17,18.85,14.99,2.01,1.88,3.42,3.44,4.4,4.45.97,1.02,1.47,1.54,1.47,1.54,0,0-.52-.51-1.52-1.49-1.01-.98-2.47-2.48-4.54-4.3-4.07-3.68-10.31-8.91-19.2-14.32-4.48-2.64-9.62-5.31-15.48-7.63-5.86-2.32-12.45-4.3-19.69-5.52-.9-.16-1.82-.26-2.75-.39-.93-.11-1.85-.28-2.8-.34-.94-.08-1.9-.16-2.85-.24l-.72-.06-.73-.03c-.48-.02-.97-.03-1.46-.05-.49-.02-.98-.03-1.47-.05l-.74-.02h-.74c-.99.03-1.99.05-3,.06-.5,0-1.01.03-1.51.07-.51.04-1.01.07-1.52.11-1.02.07-2.04.13-3.07.27-1.03.13-2.06.25-3.1.38-1.03.18-2.07.36-3.12.55-1.05.16-2.09.43-3.14.67-1.05.25-2.11.46-3.15.79-4.22,1.11-8.41,2.71-12.56,4.63-8.31,3.81-16.25,9.45-23.23,16.52-.82.91-1.69,1.77-2.44,2.75-.39.48-.78.96-1.16,1.45-.36.51-.72,1.01-1.08,1.52l-.54.76c-.17.26-.33.53-.5.8-.33.53-.66,1.07-1,1.6-.33.54-.61,1.11-.92,1.66-.29.56-.63,1.1-.88,1.69-.54,1.16-1.12,2.3-1.57,3.5-.24.6-.49,1.19-.72,1.8-.21.61-.42,1.22-.63,1.84l-.31.92-.26.94c-.17.63-.35,1.26-.53,1.89-.16.63-.29,1.28-.43,1.92-.13.64-.3,1.28-.39,1.93-.1.65-.21,1.3-.31,1.96l-.08.49-.05.49-.1.99c-.06.66-.16,1.32-.18,1.98-.03.66-.05,1.33-.08,2-.05.67-.01,1.33,0,2,.02.67.02,1.34.06,2.01.06.67.12,1.34.18,2.01.03.33.05.67.1,1l.16,1c.11.66.2,1.33.32,2,.15.66.3,1.32.45,1.98.08.33.14.66.23.99l.3.97c.2.65.38,1.3.6,1.95.25.63.49,1.27.74,1.9.13.32.23.64.38.95l.44.92c.3.61.58,1.24.9,1.84.34.59.69,1.18,1.04,1.77.18.29.33.6.53.88l.59.84c.4.56.78,1.14,1.19,1.69.44.53.88,1.06,1.33,1.59.22.26.44.54.67.8l.73.74c.49.5.97.99,1.46,1.49.53.46,1.06.91,1.59,1.37l.8.69c.26.23.56.42.85.63.57.41,1.14.83,1.71,1.24.14.1.28.21.43.31l.46.28.91.55c.61.36,1.21.75,1.84,1.1.64.32,1.28.65,1.92.97.64.32,1.27.67,1.96.92.67.28,1.34.55,2.01.83.34.14.67.28,1.01.41l1.04.34c1.4.45,2.77.97,4.22,1.29,1.44.36,2.86.78,4.34,1.01.74.14,1.47.28,2.21.42.37.06.74.15,1.11.2l1.12.14c.74.09,1.49.19,2.24.28l.56.07.56.04,1.13.07c.75.05,1.51.1,2.27.15.76.02,1.52.02,2.28.03,6.1.06,12.29-.6,18.46-1.81,6.18-1.2,12.34-2.95,18.46-5.09,6.12-2.13,12.19-4.64,18.22-7.41,12.06-5.55,23.95-12.13,35.88-19.11,5.97-3.49,11.94-7.09,17.99-10.7,3.03-1.8,6.06-3.62,9.14-5.41,3.06-1.77,6.14-3.55,9.22-5.34,12.22-7.15,24.07-14.79,36.24-21.71,12.14-6.93,24.69-13.15,37.89-17.2,6.59-2.01,13.33-3.44,20.09-4.2,6.77-.71,13.55-.73,20.18-.07,6.7.66,13.17,2.2,19.34,4.33,6.16,2.15,12.06,4.9,17.46,8.37,2.7,1.73,5.28,3.64,7.7,5.71,2.42,2.08,4.64,4.37,6.66,6.81,2.01,2.45,3.82,5.06,5.29,7.84,1.48,2.77,2.68,5.67,3.57,8.64.85,2.98,1.4,6.02,1.68,9.04.04.76.08,1.51.12,2.27.02.38.04.75.05,1.13v1.12c-.01.75,0,1.49-.06,2.24-.05.75-.06,1.49-.15,2.23-.51,5.93-2.14,11.67-4.63,16.86-2.48,5.21-5.93,9.78-9.8,13.69-1.96,1.94-4.03,3.71-6.18,5.33-2.15,1.62-4.39,3.04-6.66,4.37-4.56,2.59-9.28,4.64-14.01,6.2-4.73,1.58-9.47,2.73-14.14,3.55-4.66.8-9.24,1.35-13.73,1.66-1.12.06-2.24.16-3.35.18-1.11.03-2.21.06-3.3.09-1.09,0-2.18,0-3.26-.01-1.08,0-2.15-.07-3.21-.1-4.25-.19-8.37-.6-12.33-1.21-3.96-.63-7.75-1.43-11.38-2.37-3.62-.94-7.06-2.05-10.34-3.21-3.26-1.19-6.36-2.44-9.27-3.75-5.84-2.61-10.97-5.39-15.48-8.04-9.02-5.34-15.58-10.14-20-13.42-2.2-1.65-3.86-2.93-4.97-3.8-1.11-.87-1.68-1.31-1.68-1.31Z"/>
    <path class="cls-2" d="M259.84,39.01s-.55.08-1.58.24c-.52.08-1.16.16-1.91.3-.75.14-1.61.3-2.58.48-3.88.76-9.41,2.16-15.96,4.6-6.55,2.43-14.07,6-22.12,10.53-8.07,4.52-16.69,9.99-25.88,15.68-4.6,2.84-9.14,5.58-13.61,8.11-2.23,1.27-4.45,2.49-6.65,3.64-2.14,1.14-4.25,2.26-6.3,3.36-8.15,4.45-15.49,8.69-21.81,11.97-.79.41-1.56.82-2.31,1.21-.76.38-1.5.74-2.22,1.1-1.44.7-2.8,1.37-4.08,1.99-2.6,1.15-4.81,2.17-6.66,2.92-3.73,1.44-5.78,2.19-5.78,2.19,0,0,1.9-1.13,5.32-3.11,1.7-1.02,3.73-2.35,6.11-3.82,1.17-.78,2.42-1.61,3.75-2.49.66-.44,1.35-.89,2.05-1.35.69-.48,1.41-.96,2.13-1.47,2.93-2.01,6.13-4.2,9.55-6.55,1.73-1.18,3.51-2.39,5.36-3.63,1.87-1.22,3.79-2.49,5.78-3.76,2.01-1.24,4.1-2.53,6.2-3.78,2.09-1.24,4.21-2.52,6.36-3.85,4.32-2.68,8.79-5.45,13.36-8.29,9.19-5.68,18.2-10.91,26.78-15.01,8.57-4.1,16.7-7.04,23.71-8.74,7.01-1.72,12.81-2.33,16.8-2.48,1-.02,1.88-.05,2.65-.06.77,0,1.42.02,1.94.03,1.04.03,1.6.04,1.6.04Z"/>
    <path class="cls-2" d="M243.57,16.16s-.55.08-1.58.24c-.52.08-1.16.16-1.91.3-.75.14-1.61.3-2.58.48-3.88.76-9.41,2.16-15.96,4.6-6.55,2.43-14.07,6-22.12,10.53-8.07,4.52-16.69,9.99-25.88,15.68-4.6,2.84-9.14,5.58-13.61,8.11-2.23,1.27-4.45,2.49-6.65,3.64-2.14,1.14-4.25,2.26-6.3,3.36-8.15,4.45-15.49,8.69-21.81,11.97-.79.41-1.56.82-2.31,1.21-.76.38-1.5.74-2.22,1.1-1.44.7-2.8,1.37-4.08,1.99-2.6,1.15-4.81,2.17-6.66,2.92-3.73,1.44-5.78,2.19-5.78,2.19,0,0,1.9-1.13,5.32-3.11,1.7-1.02,3.73-2.35,6.11-3.82,1.17-.78,2.42-1.61,3.75-2.49.66-.44,1.35-.89,2.05-1.35.69-.48,1.41-.97,2.13-1.47,2.93-2.01,6.13-4.2,9.55-6.55,1.73-1.18,3.51-2.39,5.36-3.63,1.87-1.22,3.79-2.49,5.78-3.76,2.01-1.24,4.1-2.53,6.2-3.78,2.09-1.24,4.21-2.52,6.36-3.85,4.32-2.68,8.79-5.45,13.36-8.29,9.19-5.68,18.2-10.91,26.78-15.01,8.57-4.1,16.7-7.04,23.71-8.74,7.01-1.72,12.81-2.33,16.8-2.48,1-.02,1.88-.04,2.65-.06.77,0,1.42.02,1.94.03,1.04.03,1.6.04,1.6.04Z"/>
  </g>
</svg>