<?xml version="1.0" encoding="UTF-8"?>
<svg id="textos" xmlns="http://www.w3.org/2000/svg" xmlns:xlink="http://www.w3.org/1999/xlink" viewBox="0 0 751.3 65.27">
  <defs>
    <style>
      .cls-1 {
        filter: url(#drop-shadow-5);
      }

      .cls-2 {
        fill: url(#linear-gradient);
        stroke: url(#linear-gradient-2);
      }

      .cls-2, .cls-3, .cls-4, .cls-5, .cls-6, .cls-7, .cls-8, .cls-9, .cls-10, .cls-11, .cls-12, .cls-13, .cls-14, .cls-15, .cls-16, .cls-17, .cls-18 {
        stroke-miterlimit: 10;
        stroke-width: 2px;
      }

      .cls-3 {
        fill: url(#linear-gradient-13);
        stroke: url(#linear-gradient-14);
      }

      .cls-4 {
        fill: url(#linear-gradient-11);
        stroke: url(#linear-gradient-12);
      }

      .cls-5 {
        fill: url(#linear-gradient-29);
        stroke: url(#linear-gradient-30);
      }

      .cls-6 {
        fill: url(#linear-gradient-21);
        stroke: url(#linear-gradient-22);
      }

      .cls-7 {
        fill: url(#linear-gradient-19);
        stroke: url(#linear-gradient-20);
      }

      .cls-8 {
        fill: url(#linear-gradient-15);
        stroke: url(#linear-gradient-16);
      }

      .cls-9 {
        fill: url(#linear-gradient-31);
        stroke: url(#linear-gradient-32);
      }

      .cls-10 {
        fill: url(#linear-gradient-23);
        stroke: url(#linear-gradient-24);
      }

      .cls-11 {
        fill: url(#linear-gradient-33);
        stroke: url(#linear-gradient-34);
      }

      .cls-12 {
        fill: url(#linear-gradient-17);
        stroke: url(#linear-gradient-18);
      }

      .cls-13 {
        fill: url(#linear-gradient-25);
        stroke: url(#linear-gradient-26);
      }

      .cls-14 {
        fill: url(#linear-gradient-27);
        stroke: url(#linear-gradient-28);
      }

      .cls-15 {
        fill: url(#linear-gradient-7);
        stroke: url(#linear-gradient-8);
      }

      .cls-16 {
        fill: url(#linear-gradient-5);
        stroke: url(#linear-gradient-6);
      }

      .cls-17 {
        fill: url(#linear-gradient-3);
        stroke: url(#linear-gradient-4);
      }

      .cls-18 {
        fill: url(#linear-gradient-9);
        stroke: url(#linear-gradient-10);
      }
    </style>
    <filter id="drop-shadow-5" x="-33.75" y="-25.81" width="819" height="133" filterUnits="userSpaceOnUse">
      <feOffset dx="0" dy="8"/>
      <feGaussianBlur result="blur" stdDeviation="11"/>
      <feFlood flood-color="#000" flood-opacity=".9"/>
      <feComposite in2="blur" operator="in"/>
      <feComposite in="SourceGraphic"/>
    </filter>
    <linearGradient id="linear-gradient" x1="21.81" y1="35.67" x2="720.48" y2="29.66" gradientUnits="userSpaceOnUse">
      <stop offset="0" stop-color="#e1c7b5"/>
      <stop offset=".18" stop-color="#c18255"/>
      <stop offset=".42" stop-color="#c58d64"/>
      <stop offset=".7" stop-color="#e5cebe"/>
      <stop offset="1" stop-color="#ac6b3c"/>
    </linearGradient>
    <linearGradient id="linear-gradient-2" x1="279.41" y1="32.64" x2="471.33" y2="32.64" xlink:href="#linear-gradient"/>
    <linearGradient id="linear-gradient-3" x1="21.88" y1="42.74" x2="720.54" y2="36.73" xlink:href="#linear-gradient"/>
    <linearGradient id="linear-gradient-4" x1="343.54" y1="39.63" x2="417.93" y2="39.63" xlink:href="#linear-gradient"/>
    <linearGradient id="linear-gradient-5" x1="21.77" y1="30.59" x2="720.44" y2="24.58" xlink:href="#linear-gradient"/>
    <linearGradient id="linear-gradient-6" x1="334.94" y1="27.55" x2="409.32" y2="27.55" xlink:href="#linear-gradient"/>
    <linearGradient id="linear-gradient-7" x1="21.88" y1="42.86" x2="720.54" y2="36.85" xlink:href="#linear-gradient"/>
    <linearGradient id="linear-gradient-8" x1="717.29" y1="36.69" x2="751.3" y2="36.69" xlink:href="#linear-gradient"/>
    <linearGradient id="linear-gradient-9" x1="21.88" y1="42.76" x2="720.54" y2="36.75" xlink:href="#linear-gradient"/>
    <linearGradient id="linear-gradient-10" x1="712.93" y1="36.78" x2="720.7" y2="36.78" xlink:href="#linear-gradient"/>
    <linearGradient id="linear-gradient-11" x1="21.87" y1="42.66" x2="720.54" y2="36.65" xlink:href="#linear-gradient"/>
    <linearGradient id="linear-gradient-12" x1="690.75" y1="36.87" x2="698.52" y2="36.87" xlink:href="#linear-gradient"/>
    <linearGradient id="linear-gradient-13" x1="21.88" y1="42.71" x2="720.54" y2="36.7" xlink:href="#linear-gradient"/>
    <linearGradient id="linear-gradient-14" x1="694.83" y1="36.83" x2="716.52" y2="36.83" xlink:href="#linear-gradient"/>
    <linearGradient id="linear-gradient-15" x1="21.85" y1="40.3" x2="720.52" y2="34.29" xlink:href="#linear-gradient"/>
    <linearGradient id="linear-gradient-16" x1="426.58" y1="36.75" x2="449.63" y2="36.75" xlink:href="#linear-gradient"/>
    <linearGradient id="linear-gradient-17" x1="21.86" y1="40.49" x2="720.52" y2="34.48" xlink:href="#linear-gradient"/>
    <linearGradient id="linear-gradient-18" x1="446.51" y1="36.81" x2="452.27" y2="36.81" xlink:href="#linear-gradient"/>
    <linearGradient id="linear-gradient-19" x1="21.87" y1="41.61" x2="720.53" y2="35.6" xlink:href="#linear-gradient"/>
    <linearGradient id="linear-gradient-20" x1="450.27" y1="36.87" x2="695.63" y2="36.87" xlink:href="#linear-gradient"/>
    <linearGradient id="linear-gradient-21" x1="21.82" y1="36.6" x2="720.49" y2="30.59" xlink:href="#linear-gradient"/>
    <linearGradient id="linear-gradient-22" x1="0" y1="36.69" x2="34.01" y2="36.69" xlink:href="#linear-gradient"/>
    <linearGradient id="linear-gradient-23" x1="21.83" y1="36.89" x2="720.49" y2="30.88" xlink:href="#linear-gradient"/>
    <linearGradient id="linear-gradient-24" x1="30.6" y1="36.78" x2="38.37" y2="36.78" xlink:href="#linear-gradient"/>
    <linearGradient id="linear-gradient-25" x1="21.83" y1="37.17" x2="720.49" y2="31.16" xlink:href="#linear-gradient"/>
    <linearGradient id="linear-gradient-26" x1="52.78" y1="36.87" x2="60.55" y2="36.87" xlink:href="#linear-gradient"/>
    <linearGradient id="linear-gradient-27" x1="21.83" y1="37.03" x2="720.49" y2="31.02" xlink:href="#linear-gradient"/>
    <linearGradient id="linear-gradient-28" x1="34.78" y1="36.83" x2="56.47" y2="36.83" xlink:href="#linear-gradient"/>
    <linearGradient id="linear-gradient-29" x1="21.85" y1="39.29" x2="720.51" y2="33.28" xlink:href="#linear-gradient"/>
    <linearGradient id="linear-gradient-30" x1="301.67" y1="36.75" x2="324.72" y2="36.75" xlink:href="#linear-gradient"/>
    <linearGradient id="linear-gradient-31" x1="21.85" y1="39.22" x2="720.51" y2="33.21" xlink:href="#linear-gradient"/>
    <linearGradient id="linear-gradient-32" x1="299.03" y1="36.81" x2="304.79" y2="36.81" xlink:href="#linear-gradient"/>
    <linearGradient id="linear-gradient-33" x1="21.84" y1="38.22" x2="720.5" y2="32.21" xlink:href="#linear-gradient"/>
    <linearGradient id="linear-gradient-34" x1="55.67" y1="36.87" x2="301.03" y2="36.87" xlink:href="#linear-gradient"/>
  </defs>
  <g class="cls-1">
    <g>
      <path class="cls-2" d="M381.55,44.6s.31.22.91.66c.6.44,1.5,1.08,2.69,1.92,2.39,1.65,5.93,4.08,10.75,6.74,2.41,1.32,5.15,2.71,8.24,3.98,1.54.64,3.18,1.25,4.89,1.82,1.72.55,3.53,1.09,5.42,1.53,1.89.44,3.87.8,5.93,1.08,2.06.26,4.19.42,6.39.47.55,0,1.1.02,1.66.01.56-.01,1.12-.02,1.68-.03.56-.03,1.13-.06,1.7-.09.57-.02,1.15-.09,1.72-.13,2.31-.21,4.67-.55,7.06-1.02,2.38-.47,4.79-1.11,7.17-1.96,2.39-.84,4.74-1.93,6.99-3.26,1.11-.68,2.22-1.41,3.26-2.23,1.04-.82,2.04-1.71,2.98-2.67,1.85-1.95,3.47-4.18,4.62-6.7,1.15-2.51,1.88-5.26,2.08-8.11.04-.35.03-.71.05-1.07.02-.36.01-.72.01-1.08v-.54c0-.18-.03-.36-.04-.54-.02-.36-.05-.72-.07-1.08-.16-1.43-.44-2.85-.86-4.25-.44-1.39-1.02-2.73-1.73-4.03-.7-1.3-1.58-2.51-2.55-3.66-.97-1.15-2.05-2.23-3.23-3.22-1.18-.99-2.44-1.89-3.77-2.72-2.66-1.67-5.59-2.99-8.65-4.02-3.07-1.02-6.28-1.75-9.54-2.04-3.3-.29-6.65-.25-10.01.12-3.35.4-6.7,1.14-10,2.17-6.61,2.08-13.01,5.27-19.3,8.9-6.31,3.62-12.56,7.66-19.11,11.49-1.63.94-3.26,1.88-4.88,2.82-1.61.94-3.21,1.89-4.81,2.84-3.19,1.9-6.37,3.8-9.55,5.65-6.37,3.7-12.77,7.2-19.32,10.16-3.28,1.48-6.59,2.82-9.95,3.96-3.36,1.14-6.77,2.08-10.22,2.72-3.45.64-6.93.98-10.4.91-.43-.01-.87-.01-1.3-.03-.43-.03-.86-.07-1.29-.1l-.64-.05-.32-.02-.32-.04c-.43-.06-.85-.12-1.28-.17l-.64-.09c-.21-.03-.42-.08-.63-.12-.42-.08-.84-.17-1.25-.25-.84-.14-1.66-.39-2.48-.61-.83-.2-1.62-.51-2.42-.78l-.6-.21c-.2-.08-.39-.16-.59-.25-.39-.17-.78-.33-1.17-.5-.39-.15-.76-.36-1.14-.56-.37-.2-.75-.39-1.12-.59-.37-.21-.72-.44-1.08-.66l-.53-.34-.27-.17c-.09-.06-.17-.12-.25-.19-.34-.25-.67-.5-1.01-.75-.17-.13-.34-.24-.5-.39l-.47-.42c-.31-.28-.63-.56-.94-.83-.29-.3-.58-.6-.87-.91l-.43-.45c-.14-.16-.26-.32-.4-.48-.26-.32-.52-.65-.78-.97-.24-.33-.47-.68-.7-1.02l-.35-.51c-.11-.17-.21-.36-.31-.53-.2-.36-.4-.72-.6-1.07-.18-.36-.35-.74-.52-1.11l-.25-.55c-.08-.19-.14-.38-.22-.57-.14-.38-.28-.76-.42-1.14-.12-.38-.23-.77-.34-1.16l-.16-.58c-.05-.19-.09-.39-.13-.58-.08-.39-.16-.78-.24-1.17-.06-.39-.11-.78-.17-1.17l-.08-.58c-.03-.19-.03-.39-.05-.59-.03-.39-.05-.78-.08-1.17-.02-.39,0-.78-.02-1.16,0-.39-.01-.77.02-1.16.02-.38.04-.77.07-1.15.02-.38.08-.76.12-1.14l.07-.57.03-.28.05-.28c.07-.37.13-.75.2-1.12,1.17-5.92,3.95-11.29,7.93-15.27,1.98-1.93,4.08-3.64,6.26-5.12.55-.36,1.09-.74,1.65-1.07.56-.33,1.12-.66,1.68-.98,1.14-.6,2.27-1.2,3.43-1.69,2.31-1.01,4.63-1.83,6.96-2.39.57-.17,1.16-.27,1.74-.39.58-.12,1.15-.25,1.73-.32.57-.09,1.15-.17,1.71-.26.57-.06,1.14-.11,1.7-.17.56-.07,1.12-.08,1.68-.11.28-.01.55-.03.83-.04.28-.01.55-.03.82-.02.55,0,1.09,0,1.63.01h.4s.4.03.4.03c.27.02.53.03.8.05.26.02.53.03.79.05l.39.02.39.04c.52.06,1.03.11,1.54.17.51.04,1.01.15,1.51.22.5.08.99.15,1.48.25,3.9.76,7.41,1.92,10.52,3.26,3.11,1.34,5.82,2.84,8.16,4.32,4.66,3.03,7.88,5.91,9.97,7.93,1.06.99,1.81,1.82,2.33,2.35.51.54.78.82.78.82,0,0-.27-.27-.81-.79-.53-.52-1.31-1.31-2.4-2.27-2.15-1.95-5.45-4.71-10.15-7.57-2.37-1.4-5.08-2.81-8.19-4.04-3.1-1.23-6.58-2.27-10.41-2.92-.48-.08-.96-.14-1.45-.21-.49-.06-.98-.15-1.48-.18-.5-.04-1-.08-1.51-.13l-.38-.03h-.38c-.26-.02-.51-.03-.77-.04-.26,0-.52-.02-.78-.03h-.39s-.39,0-.39,0c-.52,0-1.05.02-1.58.03-.27,0-.53.02-.8.04-.27.02-.54.04-.8.06-.54.04-1.08.07-1.62.14-.54.07-1.09.13-1.64.2-.55.1-1.1.19-1.65.29-.56.08-1.1.23-1.66.35-.55.13-1.12.24-1.67.42-2.23.59-4.45,1.43-6.64,2.45-4.39,2.02-8.59,5-12.28,8.73-.43.48-.89.93-1.29,1.46-.2.25-.41.51-.61.76-.19.27-.38.54-.57.8l-.29.4c-.09.14-.18.28-.26.42-.18.28-.35.56-.53.85-.17.29-.32.59-.49.88-.16.3-.33.58-.47.89-.28.61-.59,1.21-.83,1.85-.13.32-.26.63-.38.95-.11.32-.22.65-.33.97l-.17.49-.14.5c-.09.33-.19.66-.28,1-.09.33-.15.68-.23,1.01-.07.34-.16.68-.2,1.02-.05.34-.11.69-.16,1.03l-.04.26-.03.26-.05.52c-.03.35-.08.7-.09,1.05-.01.35-.03.7-.04,1.06-.02.35,0,.71,0,1.06.01.35,0,.71.03,1.06.03.35.06.71.09,1.06.02.18.02.36.05.53l.08.53c.06.35.1.71.17,1.06.08.35.16.7.24,1.04.04.17.07.35.12.52l.16.51c.11.34.2.69.32,1.03.13.33.26.67.39,1.01.07.17.12.34.2.5l.23.49c.16.32.31.65.47.97.18.31.36.62.55.94.09.15.18.32.28.47l.31.45c.21.3.41.6.63.89.23.28.47.56.7.84.12.14.23.28.35.42l.39.39c.26.26.51.52.77.79.28.24.56.48.84.72l.42.36c.14.12.3.22.45.33.3.22.6.44.91.66.08.05.15.11.23.16l.24.15.48.29c.32.19.64.4.97.58.34.17.68.34,1.02.51.34.17.67.35,1.03.49.35.15.71.29,1.06.44.18.07.35.15.53.22l.55.18c.74.24,1.46.51,2.23.68.76.19,1.51.41,2.3.53.39.07.78.15,1.17.22.2.03.39.08.59.1l.59.07c.39.05.79.1,1.18.15l.3.04.3.02.6.04c.4.03.8.05,1.2.08.4.01.8,0,1.21.02,3.22.03,6.5-.32,9.76-.96,3.27-.64,6.53-1.56,9.76-2.69,3.23-1.13,6.44-2.45,9.63-3.92,6.38-2.93,12.66-6.41,18.97-10.1,3.15-1.85,6.31-3.75,9.51-5.66,1.6-.95,3.21-1.91,4.83-2.86,1.62-.94,3.24-1.88,4.87-2.82,6.46-3.78,12.72-7.82,19.16-11.48,6.42-3.66,13.05-6.95,20.03-9.09,3.49-1.06,7.05-1.82,10.62-2.22,3.58-.38,7.16-.39,10.67-.04,3.54.35,6.96,1.17,10.22,2.29,3.26,1.14,6.38,2.59,9.23,4.43,1.43.92,2.79,1.92,4.07,3.02,1.28,1.1,2.45,2.31,3.52,3.6,1.06,1.29,2.02,2.67,2.79,4.14.78,1.47,1.41,3,1.89,4.57.45,1.58.74,3.18.89,4.78.02.4.04.8.06,1.2,0,.2.02.4.03.6v.59c0,.4,0,.79-.03,1.18-.03.39-.03.79-.08,1.18-.27,3.14-1.13,6.17-2.45,8.91-1.31,2.75-3.14,5.17-5.18,7.24-1.03,1.03-2.13,1.96-3.27,2.82-1.13.86-2.32,1.61-3.52,2.31-2.41,1.37-4.9,2.45-7.41,3.28-2.5.83-5.01,1.44-7.48,1.88-2.46.43-4.89.71-7.26.88-.59.03-1.18.09-1.77.1-.59.02-1.17.03-1.75.05-.58,0-1.15,0-1.72,0-.57,0-1.14-.04-1.7-.05-2.25-.1-4.42-.32-6.52-.64-2.09-.33-4.1-.76-6.01-1.25-1.92-.5-3.73-1.08-5.46-1.69-1.73-.63-3.36-1.29-4.9-1.98-3.09-1.38-5.8-2.85-8.19-4.25-4.77-2.82-8.24-5.36-10.57-7.09-1.16-.87-2.04-1.55-2.63-2.01-.59-.46-.89-.69-.89-.69Z"/>
      <path class="cls-17" d="M417.77,21.62s-.29.04-.83.13c-.27.04-.61.09-1.01.16-.4.07-.85.16-1.37.25-2.05.4-4.97,1.14-8.44,2.43-3.46,1.28-7.44,3.17-11.7,5.57-4.27,2.39-8.82,5.28-13.68,8.29-2.43,1.5-4.83,2.95-7.2,4.29-1.18.67-2.35,1.31-3.51,1.92-1.13.6-2.24,1.2-3.33,1.77-4.31,2.35-8.19,4.59-11.53,6.33-.42.22-.82.43-1.22.64-.4.2-.79.39-1.17.58-.76.37-1.48.72-2.16,1.05-1.37.61-2.54,1.14-3.52,1.54-1.97.76-3.06,1.16-3.06,1.16,0,0,1-.6,2.81-1.64.9-.54,1.97-1.24,3.23-2.02.62-.41,1.28-.85,1.98-1.32.35-.23.71-.47,1.08-.71.37-.25.74-.51,1.13-.77,1.55-1.06,3.24-2.22,5.05-3.46.91-.62,1.86-1.27,2.84-1.92.99-.65,2-1.32,3.06-1.99,1.06-.65,2.17-1.34,3.28-2,1.1-.65,2.22-1.33,3.36-2.03,2.28-1.42,4.64-2.88,7.06-4.38,4.86-3,9.62-5.77,14.16-7.93,4.53-2.17,8.83-3.72,12.53-4.62,3.7-.91,6.77-1.23,8.88-1.31.53-.01,1-.02,1.4-.03.41,0,.75.01,1.03.01.55.01.84.02.84.02Z"/>
      <path class="cls-16" d="M409.17,9.54s-.29.04-.83.13c-.27.04-.61.09-1.01.16-.4.07-.85.16-1.37.25-2.05.4-4.97,1.14-8.44,2.43-3.47,1.28-7.44,3.17-11.7,5.57-4.27,2.39-8.82,5.28-13.68,8.29-2.43,1.5-4.83,2.95-7.19,4.29-1.18.67-2.35,1.31-3.51,1.92-1.13.6-2.24,1.2-3.33,1.77-4.31,2.35-8.19,4.59-11.53,6.33-.42.22-.82.43-1.22.64-.4.2-.79.39-1.17.58-.76.37-1.48.72-2.16,1.05-1.37.61-2.54,1.14-3.52,1.54-1.97.76-3.06,1.16-3.06,1.16,0,0,1-.6,2.81-1.64.9-.54,1.97-1.24,3.23-2.02.62-.41,1.28-.85,1.98-1.32.35-.23.71-.47,1.08-.71.37-.25.74-.51,1.13-.77,1.55-1.06,3.24-2.22,5.05-3.46.91-.62,1.86-1.27,2.84-1.92.99-.65,2-1.32,3.06-1.99,1.06-.65,2.17-1.34,3.28-2,1.1-.65,2.22-1.33,3.36-2.03,2.28-1.42,4.64-2.88,7.06-4.38,4.86-3.01,9.62-5.77,14.16-7.93,4.53-2.17,8.83-3.72,12.53-4.62,3.7-.91,6.77-1.23,8.88-1.31.53-.01,1-.02,1.4-.03.41,0,.75.01,1.03.01.55.01.84.02.84.02Z"/>
    </g>
    <g>
      <g>
        <path class="cls-15" d="M750.28,36.55s-4.01-21.8-31.42.13c0,0,25.84,22.15,31.42-.13ZM743.98,36.67c0,.58-.46,1.05-1.04,1.05-.58,0-1.05-.46-1.05-1.04,0-.58.46-1.05,1.04-1.05.58,0,1.05.46,1.05,1.04ZM725.65,36.72s1.77-6.56,14.34-.06c0,0-11.72,6.73-14.34.06Z"/>
        <path class="cls-18" d="M716.83,39.67c-1.59,0-2.89-1.28-2.9-2.88h0c0-1.59,1.28-2.89,2.88-2.9h0c1.59,0,2.89,1.28,2.9,2.88h0c0,1.59-1.28,2.89-2.88,2.9h0Z"/>
        <path class="cls-4" d="M694.64,39.76c-1.59,0-2.89-1.28-2.9-2.88h0c0-1.59,1.28-2.89,2.88-2.9h0c1.59,0,2.89,1.28,2.9,2.88h0c0,1.59-1.28,2.89-2.88,2.9h0Z"/>
        <path class="cls-3" d="M705.72,44.48s9.88-7.65,9.79-7.69c.09-.04-9.85-7.61-9.85-7.61-1.15,2.5-9.85,7.68-9.83,7.69-.14.08,8.72,5.12,9.89,7.61Z"/>
        <path class="cls-8" d="M448.06,36.74c-17.85-14.28-20.46-.08-20.46-.08,3.64,14.51,20.46.08,20.46.08ZM432.39,36.06c.38,0,.68.31.68.68,0,.38-.31.68-.68.68-.38,0-.68-.31-.68-.68,0-.38.31-.68.68-.68ZM434.3,36.73c8.19-4.24,9.34.04,9.34.04-1.7,4.35-9.34-.04-9.34-.04Z"/>
        <path class="cls-12" d="M449.38,38.69c1.04,0,1.88-.83,1.89-1.87h0c0-1.04-.83-1.88-1.87-1.89h0c-1.04,0-1.88.83-1.89,1.87h0c0,1.04.83,1.88,1.87,1.89h0Z"/>
      </g>
      <rect class="cls-7" x="451.27" y="35.85" width="243.36" height="2.04"/>
    </g>
    <path class="cls-6" d="M32.44,36.68c-27.4-21.93-31.42-.13-31.42-.13,5.58,22.28,31.42.13,31.42.13ZM8.37,35.63c.58,0,1.04.47,1.04,1.05,0,.58-.47,1.04-1.05,1.04-.58,0-1.04-.47-1.04-1.05,0-.58.47-1.04,1.05-1.04ZM11.31,36.66c12.57-6.51,14.34.06,14.34.06-2.62,6.68-14.34-.06-14.34-.06Z"/>
    <path class="cls-10" d="M34.47,39.67c1.59,0,2.89-1.28,2.9-2.88h0c0-1.59-1.28-2.89-2.88-2.9h0c-1.59,0-2.89,1.28-2.9,2.88h0c0,1.59,1.28,2.89,2.88,2.9h0Z"/>
    <path class="cls-13" d="M56.66,39.76c1.59,0,2.89-1.28,2.9-2.88h0c0-1.59-1.28-2.89-2.88-2.9h0c-1.59,0-2.89,1.28-2.9,2.88h0c0,1.59,1.28,2.89,2.88,2.9h0Z"/>
    <path class="cls-14" d="M45.58,44.48s-9.88-7.65-9.79-7.69c-.09-.04,9.85-7.61,9.85-7.61,1.15,2.5,9.85,7.68,9.83,7.69.14.08-8.72,5.12-9.89,7.61Z"/>
    <path class="cls-5" d="M323.7,36.66s-2.61-14.2-20.46.08c0,0,16.82,14.43,20.46-.08ZM319.59,36.74c0,.38-.3.68-.68.68-.38,0-.68-.3-.68-.68,0-.38.3-.68.68-.68.38,0,.68.3.68.68ZM307.66,36.77s1.15-4.27,9.34-.04c0,0-7.64,4.39-9.34.04Z"/>
    <path class="cls-9" d="M301.91,38.69c-1.04,0-1.88-.83-1.89-1.87h0c0-1.04.83-1.88,1.87-1.89h0c1.04,0,1.88.83,1.89,1.87h0c0,1.04-.83,1.88-1.87,1.89h0Z"/>
    <rect class="cls-11" x="56.67" y="35.85" width="243.36" height="2.04"/>
  </g>
</svg>