<?xml version="1.0" encoding="UTF-8"?>
<svg id="textos" xmlns="http://www.w3.org/2000/svg" viewBox="0 0 522.83 187.1">
  <defs>
    <style>
      .cls-1 {
        fill: #5b1223;
        stroke: #5b1223;
        stroke-miterlimit: 10;
        stroke-width: .75px;
      }

      .cls-2 {
        fill: #863443;
      }
    </style>
  </defs>
  <g>
    <path class="cls-2" d="M117.07,24.56c-1.57,0-3.09.76-3.78,2.2l-.44-.44c.69-3.65,3.21-5.86,6.17-5.86.25,0,.5.06.82.06-.38-2.27-1.2-7.81-1.2-8.88,0-2.9,2.27-4.28,4.66-5.67l10.14-5.98c3.59,1.89,7.87,4.28,8.82,8.82,3.65-2.65,7.68-5.73,10.77-8.57,2.08,1.76,4.47,3.78,7.75,4.6l-.13,1.13c-1.2.5-2.83,1.26-2.83,3.91v24.88c0,2.96,1.89,4.03,3.28,4.35l1.39-1.57.94.76-6.11,7.62c-3.53-1.39-6.05-4.22-6.05-8.5v-12.22h-3.53v15.12c-2.46,1.57-4.91,3.78-6.87,5.61-1.76-1.64-5.16-3.97-7.75-4.66v-1.13c1.26-.44,2.71-1.32,2.71-3.02v-11.9h-4.35v6.93c0,6.68-2.65,13.79-8.69,13.79-1.64,0-3.02-.57-4.22-1.01-1.83-.69-2.71-.94-3.46-.94-.82,0-1.76.32-2.33,1.01l-.5.57-.88-.82,3.02-3.91c1.26-1.64,2.83-2.65,4.98-2.65h.57c1.57-1.57,2.02-2.96,2.02-4.72,0-.88-.44-4.6-.69-6.55-.88-1.57-2.58-2.33-4.22-2.33ZM130.49,6.36c-.88-.44-1.76-.88-2.71-1.13-1.7,1.01-2.52,2.83-2.52,4.66s.38,3.72.82,6.49l1.51,9.45c.38,2.46.44,3.4.44,3.97,0,3.34-2.65,5.35-6.55,8.75,1.51.57,3.34,1.51,5.16,1.51,3.28,0,3.78-5.48,3.84-7.87V6.36ZM135.84,20.91v-9.01c0-2.52-2.14-3.97-4.35-5.17v14.17h4.35ZM142.33,10.2v28.09c.94.82,2.14,1.45,3.53,1.83l.88-.57V6.93l-4.41,3.28ZM151.34,20.91v-12.79c-1.39-.38-2.58-.94-3.59-1.64v14.42h3.59Z"/>
    <path class="cls-2" d="M164.49,18.58l4.91-4.72,5.48,4.66-2.14,2.52v18.01c.63.44,1.7,1.13,2.39,1.89l1.45-1.01.5.94-5.73,4.47c-3.28-1.95-4.79-3.02-6.74-3.46v-1.07c1.45-.44,2.08-2.39,2.08-3.72v-16.31l-2.2-2.2ZM169.47,10.83l-.76-.38,3.28-7.94h5.35v.88l-7.87,7.43Z"/>
    <path class="cls-2" d="M180.24,18.45c3.97-1.07,7.5-2.65,10.27-4.72,1.01.88,3.46,2.83,5.67,2.83,1.83,0,2.58-2.02,2.52-3.65l.88.13c0,2.27-1.01,3.78-2.52,5.61l-5.48,6.8c2.08,1.51,4.79,2.65,7.56,2.65l.13.88c-1.32,1.13-1.64,1.57-1.64,2.2v9.01c-3.34.94-6.87,2.77-10.2,5.73-1.2-1.57-4.53-4.03-7.18-4.03s-3.97,2.08-3.02,3.97l-.88.44c-1.57-3.15,1.95-5.29,3.72-7.68l4.16-5.54c-1.83-.88-3.78-2.02-5.86-2.58v-.88c.63-.19,1.89-.63,1.89-1.57v-9.57ZM191.57,31.49c-1.39-.32-2.58-.94-3.65-1.7l-6.8,9.13c3.59-1.07,8-.44,10.46,2.46v-9.89ZM193.84,21.04c-3.46.13-5.73-.88-7.56-3.59v10.77l1.13.69,6.42-7.87Z"/>
    <path class="cls-2" d="M226.9,10.83c-.88-3.97-2.71-5.67-4.91-5.67-1.2,0-2.52.5-3.84,1.51l-.63-.82c2.71-2.96,6.05-4.91,9.26-4.91,2.71,0,4.98,1.7,5.92,5.73l1.89,8.06c1.32-4.47,3.34-11.46,6.68-14.49,1.64.44,3.28,2.08,4.98,2.08.94,0,1.64-1.07,1.95-1.89l.88.44c-1.01,4.41-2.83,7.75-6.11,7.75-1.64,0-3.21-.63-4.54-1.57-1.51,3.34-2.39,6.68-3.28,9.7l.57,2.65h4.79c1.13,0,2.33,0,3.09-1.2l.82.38-2.46,4.91c-.44.82-1.13,1.26-2.2,1.26h-2.83l2.27,8.63c.63,2.39,2.08,4.09,4.66,4.91l1.76-2.39,1.2.69-6.23,9.32c-3.4-1.45-6.17-4.28-7.31-8.19l-2.08-7.24c-1.32,4.47-4.03,12.34-7.05,15.18-1.76-.69-3.84-3.4-5.73-3.4-.94,0-1.51.57-1.95,1.01l-.57.63-.94-.69,1.39-2.14c1.32-2.08,3.28-5.04,6.23-5.04,1.7,0,3.28,1.13,4.54,2.27,1.32-3.09,2.52-6.23,3.46-9.83l-.63-3.78h-5.79c-1.01,0-1.57.38-2.2,1.13l-.76-.44,2.46-4.66c.44-.82,1.07-1.32,2.14-1.32h3.02l-1.89-8.57Z"/>
    <path class="cls-2" d="M254.48,25.44c-.69,0-1.45.19-2.08.57l-.38-.5c.63-1.7,2.65-2.96,4.35-2.96.5,0,1.01.13,1.39.38l.19-1.45c-.5-1.13-1.7-1.64-3.09-1.64-1.57,0-3.34.69-4.47,1.89l-.38-.5c1.07-3.72,3.91-5.42,6.68-5.42.63,0,1.2.06,1.83.25.06-.82.13-1.57.13-2.27,0-6.05-2.58-8.82-5.42-8.82-1.64,0-3.4.94-4.85,2.65l-.57-.5c2.02-3.4,6.17-6.05,10.39-6.05,3.4,0,6.05,2.65,6.49,7.31,3.78-2.08,7.75-5.73,10.27-8.38,2.2,1.89,5.67,4.6,9.51,5.42l-.06,1.13c-1.01.44-2.52,1.32-2.52,2.65v24.56c.57.44,1.2.69,2.02.94l-.19,1.13c-6.36,1.76-11.4,5.67-17.32,11.21-3.09-3.78-8.63-6.42-13.79-6.42-.5,0-.94,0-1.45.06v-1.07c2.39-.25,5.98-7.37,6.61-12.09-.44-1.39-1.83-2.08-3.28-2.08ZM264.69,9.45c0,10.08-3.84,23.75-10.71,29.48,1.95-.69,3.9-1.01,5.86-1.01,4.22,0,8.19,1.57,10.52,3.84V5.79c-2.08,1.45-3.78,2.52-5.67,3.65ZM275.33,8.57c-1.39-.31-2.71-.88-3.97-1.95v34.64c1.2-.94,2.46-1.83,3.97-2.83V8.57Z"/>
    <path class="cls-2" d="M332.89,46.04c-2.58-1.57-4.22-4.28-5.1-7.18l-2.58-8.25h-11.71l-2.14,5.79c2.83.19,4.79,1.32,6.93,3.02l1.89-2.27.76.76-6.74,8.12c-1.89-1.95-3.65-3.91-6.42-3.91s-4.79,1.39-5.54,4.41l-.76-.31c.94-5.67,4.16-9.7,8.69-9.83l2.02-5.79c-7.18-1.39-10.71-8.06-10.71-15.3,0-9.95,7.12-15.3,12.97-15.3,6.55,0,8.63,3.59,10.01,8.19.25-3.15,1.57-6.42,4.47-8.06l.57.82c-2.2,1.39-3.4,3.65-3.4,6.49,0,2.52,1.07,5.48,2.39,10.71l3.97,13.79c.69,2.39,1.64,5.8,4.28,6.8l1.83-2.71,1.07.69-5.35,7.75c-.38.57-1.01,1.2-1.39,1.57ZM312.55,29.67l1.51-4.03c-.38-1.89-1.64-3.72-2.96-3.72-.44,0-.82.19-1.2.5l-.25-.5c.94-1.45,2.14-2.02,3.28-2.02,1.2,0,2.33.69,2.83,1.57l.69-1.7c-.44-1.83-2.33-3.59-4.47-3.59-1.07,0-2.27.5-3.28,1.76l-.44-.44c1.45-3.09,3.72-4.66,5.86-4.66,1.51,0,2.9.76,3.91,2.27l1.32-3.65c-1.26-3.59-2.39-8.12-7.68-8.12-5.92,0-9.2,5.86-9.2,12.09s3.28,12.97,10.08,14.23ZM319.98,12.97l-4.79,13.41h8.63l-3.84-13.41Z"/>
    <path class="cls-2" d="M360.1,36.28c0,3.4.69,4.91,3.02,4.09l.19.94-6.3,4.09c-2.83-2.33-2.96-5.35-2.96-8.75v-15.56l-2.14-1.64-3.72,3.59v16.31l2.2,1.89-4.79,4.41-5.42-4.16,1.95-2.08v-17.19c0-1.95-1.13-3.84-3.15-2.9l-.38-.82,4.79-4.72c3.4.88,4.79,4.41,4.79,7.68l7.56-7.62c1.95,2.39,3.97,3.84,5.92,3.4l.31.82c-.94.38-1.89,1.57-1.89,2.9v15.3ZM358.9,4.85l-1.45,3.4c-.44,1.2-1.07,2.77-2.58,2.77-.88,0-2.46-.44-3.4-.82l-1.7-.69c-.69-.25-1.64-.57-2.33-.57-1.45,0-1.89.76-2.27,1.7l-.31.69-.76-.32,1.64-3.46c.57-1.2,1.13-2.14,1.89-2.9h1.01c.44,0,.95.13,2.71.88l2.08.82c1.39.57,2.08.63,2.46.63.76,0,1.45-.69,1.76-1.39l.5-.94.76.19Z"/>
    <path class="cls-2" d="M375.97,13.54c3.34,1.89,6.99,3.9,11.34,4.6v.94c-1.07.5-1.57,1.32-1.57,3.97v17.82l-9.2,4.79c-2.96-2.27-7.43-3.97-10.96-4.53v-.94c1.2-.5,1.51-1.32,1.51-3.65v-17.7l8.88-5.29ZM373.13,38.36c2.58.82,4.6,1.89,6.55,3.53v-21.04c-2.39-.44-4.53-1.45-6.55-3.21v20.72Z"/>
    <path class="cls-2" d="M392.08,18.45c3.97-1.07,7.5-2.65,10.27-4.72,1.01.88,3.46,2.83,5.67,2.83,1.83,0,2.58-2.02,2.52-3.65l.88.13c0,2.27-1.01,3.78-2.52,5.61l-5.48,6.8c2.08,1.51,4.79,2.65,7.56,2.65l.13.88c-1.32,1.13-1.64,1.57-1.64,2.2v9.01c-3.34.94-6.87,2.77-10.2,5.73-1.2-1.57-4.53-4.03-7.18-4.03s-3.97,2.08-3.02,3.97l-.88.44c-1.57-3.15,1.95-5.29,3.72-7.68l4.16-5.54c-1.83-.88-3.78-2.02-5.86-2.58v-.88c.63-.19,1.89-.63,1.89-1.57v-9.57ZM403.42,31.49c-1.39-.32-2.58-.94-3.65-1.7l-6.8,9.13c3.59-1.07,8-.44,10.46,2.46v-9.89ZM405.69,21.04c-3.46.13-5.73-.88-7.56-3.59v10.77l1.13.69,6.42-7.87Z"/>
  </g>
  <g>
    <path class="cls-1" d="M97.96,97.64c1.21,0,1.82,1.01,1.82,3.03s-.66,5.9-1.97,11.63c-1.31,5.73-3.61,13.48-6.88,23.26-3.27,9.78-6.62,17.73-10.06,23.86,1.01-.07,2.81-.14,5.41-.2,2.59-.07,4.72-.14,6.37-.2,1.65-.07,3.64-.29,5.97-.66,2.33-.37,4.23-.89,5.71-1.57,3.57-1.69,5.66-4.18,6.27-7.48-.14-.88-.09-1.36.15-1.47.24-.1.42.02.56.35.47.87.71,1.82.71,2.83s-.54,2.41-1.62,4.2c-1.08,1.78-3.2,3.34-6.37,4.65-3.17,1.31-11.39,2.04-24.67,2.17-3.24,4.85-7.33,9.13-12.29,12.84-4.95,3.71-10.2,6.61-15.72,8.7-5.53,2.09-10.2,3.14-14,3.14s-7.03-.44-9.66-1.31c-5.06-1.69-7.58-4.25-7.58-7.68,0-4.45,4.08-8.36,12.24-11.73,10.45-4.32,25.01-6.47,43.68-6.47,6.61-16.18,11.22-29.22,13.85-39.13-6.14,13.21-12.98,22.38-20.53,27.51-3.98,2.7-7.82,4.04-11.53,4.04s-6.59-1.01-8.65-3.03c-2.06-2.02-3.08-4.79-3.08-8.29,0-7.35,4.99-19.15,14.97-35.39,3.1-5.06,5.6-10.18,7.48-15.37,2.16-5.73,3.24-10.65,3.24-14.76s-1.33-7.04-3.99-8.8c-2.66-1.75-5.88-2.63-9.66-2.63-1.48,0-3.07.17-4.75.51-12.13,2.29-23.09,8.59-32.86,18.91-4.92,5.19-8.53,10.52-10.82,15.98-2.36,5.87-3.54,10.89-3.54,15.07,0,1.75.24,3.37.71,4.85,1.35,4.92,4.01,8.29,7.99,10.11,2.02.88,4.11,1.31,6.27,1.31,7.48,0,13.85-4.18,19.11-12.54,2.97-4.79,4.45-8.97,4.45-12.54,0-4.65-2.09-6.98-6.27-6.98-.81,0-1.79.12-2.93.35-1.15.24-1.75.15-1.82-.25-.07-.54.71-1.01,2.33-1.42,1.62-.4,3.17-.61,4.65-.61,3.5,0,5.87,1.48,7.08,4.45.54,1.28.81,2.66.81,4.15,0,2.97-1.05,6.41-3.13,10.31-4.11,7.48-10.15,12.88-18.1,16.18-2.43,1.01-4.65,1.52-6.67,1.52-6.54,0-11.66-2.36-15.37-7.08-3.24-3.98-4.85-8.53-4.85-13.65s1.25-10.25,3.74-15.37c2.49-5.12,5.75-9.84,9.76-14.16,4.01-4.31,8.31-7.95,12.89-10.92,4.58-2.97,9.4-5.43,14.46-7.38,5.32-2.09,10.21-3.13,14.66-3.13s8.39.67,11.83,2.02c3.57,1.62,6.1,3.79,7.58,6.52,1.48,2.73,2.23,5.61,2.23,8.65,0,7.62-2.8,16.08-8.39,25.38-8.7,14.83-13.95,26.36-15.77,34.58-.27,1.42-.4,2.9-.4,4.45s.51,3,1.52,4.35c1.01,1.35,2.49,2.02,4.45,2.02,2.76,0,5.76-1.18,9-3.54,3.84-2.7,7.69-7.11,11.53-13.25,6.4-10.25,11.22-20.73,14.46-31.45.2-1.08.81-1.92,1.82-2.53,1.01-.61,1.75-.91,2.23-.91ZM25.55,178.73c0,.54.13,1.08.4,1.62,1.42,2.29,4.67,3.44,9.76,3.44s9.94-.84,14.56-2.53c4.62-1.69,9.12-4.16,13.5-7.43,4.38-3.27,7.99-7.2,10.82-11.78-17.66,0-31.21,2.73-40.65,8.19-5.6,3.24-8.39,6.07-8.39,8.49Z"/>
    <path class="cls-1" d="M126.88,127.32c-2.22,4.28-3.56,7.48-3.99,9.61-.44,2.12-.66,3.84-.66,5.16s.51,1.97,1.52,1.97c1.28,0,2.86-1.18,4.75-3.54,2.76-3.44,5.49-7.92,8.19-13.45.27-.61.57-.94.91-1.01.54-.2.81,0,.81.61,0,.34-.1.74-.3,1.21-6.2,12.54-11.43,18.81-15.67,18.81-1.96,0-3.54-.94-4.75-2.83-.61-1.01-.91-2.36-.91-4.04s.34-3.74,1.01-6.17c-5.39,8.7-10.05,13.04-13.95,13.04-1.08,0-2.06-.34-2.93-1.01-2.02-1.42-3.03-3.84-3.03-7.28,0-6.61,2.86-13.31,8.59-20.12,3.24-3.77,7.21-6.23,11.93-7.38,1.28-.34,2.49-.51,3.64-.51,3.1,0,5.73,1.08,7.89,3.24.67.74.87,1.45.61,2.12-.27.67-.84.94-1.72.81-.74-2.43-2.36-3.64-4.85-3.64-2.9,0-6.47,2.29-10.72,6.88-2.43,2.7-4.69,5.87-6.77,9.51-2.63,4.38-3.94,7.89-3.94,10.52s.84,3.94,2.53,3.94c4.05,0,9.34-6.2,15.88-18.61,1.28-2.49,2.36-4.2,3.24-5.11.88-.91,1.99-1.36,3.34-1.36.27,0,.96.1,2.07.3,1.11.2,1.94.24,2.48.1-1.21,1.21-2.93,3.96-5.16,8.24Z"/>
    <path class="cls-1" d="M150.34,105.93c0,3.03-1.92,5.9-5.76,8.6,1.35.07,3.15.1,5.41.1s5.11-.17,8.55-.51c.13.2.2.74.2,1.62s-.4,2.17-1.21,3.89c-.81,1.72-1.53,3.2-2.17,4.45-.64,1.25-1.25,2.43-1.82,3.54-.57,1.11-1.21,2.48-1.92,4.1-.71,1.62-1.3,3.1-1.77,4.45-1.69,5.12-1.42,7.68.81,7.68,2.83,0,7.01-5.63,12.54-16.89.47-.88.86-1.21,1.16-1.01.3.2.45.45.45.76s-.44,1.35-1.31,3.14c-.88,1.79-1.82,3.62-2.83,5.51-1.01,1.89-2.6,4.08-4.75,6.57-2.56,3.1-5.02,4.65-7.38,4.65-2.63,0-4.45-1.58-5.46-4.75-.2-.61-.3-1.52-.3-2.73s.39-2.83,1.16-4.85c.77-2.02,2-4.48,3.69-7.38,1.68-2.9,2.63-4.6,2.83-5.11.2-.51.3-.99.3-1.47,0-2.09-2.7-3.2-8.09-3.34l-1.21,3.24c-4.25,11.12-8.33,18.57-12.24,22.35-.67.61-1.01.4-1.01-.61,0-.2.07-.44.2-.71,3.77-4.99,7.04-10.89,9.81-17.7,2.76-6.81,4.69-13.28,5.76-19.42.4-2.09,1.35-3.14,2.83-3.14s2.56.95,3.24,2.83c.2.61.3,1.31.3,2.12Z"/>
    <path class="cls-1" d="M188.56,127.32c-2.22,4.28-3.56,7.48-3.99,9.61-.44,2.12-.66,3.84-.66,5.16s.51,1.97,1.52,1.97c1.28,0,2.86-1.18,4.75-3.54,2.76-3.44,5.49-7.92,8.19-13.45.27-.61.57-.94.91-1.01.54-.2.81,0,.81.61,0,.34-.1.74-.3,1.21-6.2,12.54-11.43,18.81-15.67,18.81-1.96,0-3.54-.94-4.75-2.83-.61-1.01-.91-2.36-.91-4.04s.34-3.74,1.01-6.17c-5.39,8.7-10.05,13.04-13.95,13.04-1.08,0-2.06-.34-2.93-1.01-2.02-1.42-3.03-3.84-3.03-7.28,0-6.61,2.86-13.31,8.59-20.12,3.24-3.77,7.21-6.23,11.93-7.38,1.28-.34,2.49-.51,3.64-.51,3.1,0,5.73,1.08,7.89,3.24.67.74.87,1.45.61,2.12-.27.67-.84.94-1.72.81-.74-2.43-2.36-3.64-4.85-3.64-2.9,0-6.47,2.29-10.72,6.88-2.43,2.7-4.69,5.87-6.77,9.51-2.63,4.38-3.94,7.89-3.94,10.52s.84,3.94,2.53,3.94c4.05,0,9.34-6.2,15.88-18.61,1.28-2.49,2.36-4.2,3.24-5.11.88-.91,1.99-1.36,3.34-1.36.27,0,.96.1,2.07.3,1.11.2,1.94.24,2.48.1-1.21,1.21-2.93,3.96-5.16,8.24Z"/>
    <path class="cls-1" d="M318.19,97.64c1.21,0,1.82,1.01,1.82,3.03s-.66,5.9-1.97,11.63c-1.31,5.73-3.61,13.48-6.88,23.26-3.27,9.78-6.62,17.73-10.06,23.86,1.01-.07,2.81-.14,5.41-.2,2.59-.07,4.72-.14,6.37-.2,1.65-.07,3.64-.29,5.97-.66,2.33-.37,4.23-.89,5.71-1.57,3.57-1.69,5.66-4.18,6.27-7.48-.14-.88-.09-1.36.15-1.47.24-.1.42.02.56.35.47.87.71,1.82.71,2.83s-.54,2.41-1.62,4.2c-1.08,1.78-3.2,3.34-6.37,4.65-3.17,1.31-11.39,2.04-24.67,2.17-3.24,4.85-7.33,9.13-12.29,12.84-4.96,3.71-10.2,6.61-15.72,8.7-5.53,2.09-10.2,3.14-14,3.14s-7.03-.44-9.66-1.31c-5.06-1.69-7.58-4.25-7.58-7.68,0-4.45,4.08-8.36,12.24-11.73,10.45-4.32,25.01-6.47,43.68-6.47,6.61-16.18,11.22-29.22,13.85-39.13-6.13,13.21-12.98,22.38-20.53,27.51-3.98,2.7-7.82,4.04-11.53,4.04s-6.59-1.01-8.65-3.03c-2.06-2.02-3.08-4.79-3.08-8.29,0-7.35,4.99-19.15,14.97-35.39,3.1-5.06,5.59-10.18,7.48-15.37,2.16-5.73,3.24-10.65,3.24-14.76s-1.33-7.04-3.99-8.8c-2.66-1.75-5.88-2.63-9.66-2.63-1.48,0-3.07.17-4.75.51-12.13,2.29-23.09,8.59-32.86,18.91-4.92,5.19-8.53,10.52-10.82,15.98-2.36,5.87-3.54,10.89-3.54,15.07,0,1.75.24,3.37.71,4.85,1.35,4.92,4.01,8.29,7.99,10.11,2.02.88,4.11,1.31,6.27,1.31,7.48,0,13.85-4.18,19.11-12.54,2.97-4.79,4.45-8.97,4.45-12.54,0-4.65-2.09-6.98-6.27-6.98-.81,0-1.79.12-2.93.35-1.15.24-1.75.15-1.82-.25-.07-.54.71-1.01,2.33-1.42,1.62-.4,3.17-.61,4.65-.61,3.5,0,5.87,1.48,7.08,4.45.54,1.28.81,2.66.81,4.15,0,2.97-1.05,6.41-3.14,10.31-4.11,7.48-10.15,12.88-18.1,16.18-2.43,1.01-4.65,1.52-6.67,1.52-6.54,0-11.66-2.36-15.37-7.08-3.24-3.98-4.85-8.53-4.85-13.65s1.25-10.25,3.74-15.37c2.49-5.12,5.75-9.84,9.76-14.16,4.01-4.31,8.31-7.95,12.89-10.92,4.58-2.97,9.4-5.43,14.46-7.38,5.32-2.09,10.21-3.13,14.66-3.13s8.39.67,11.83,2.02c3.57,1.62,6.1,3.79,7.58,6.52,1.48,2.73,2.22,5.61,2.22,8.65,0,7.62-2.8,16.08-8.39,25.38-8.7,14.83-13.95,26.36-15.77,34.58-.27,1.42-.4,2.9-.4,4.45s.51,3,1.52,4.35c1.01,1.35,2.49,2.02,4.45,2.02,2.76,0,5.76-1.18,9-3.54,3.84-2.7,7.68-7.11,11.53-13.25,6.4-10.25,11.22-20.73,14.46-31.45.2-1.08.81-1.92,1.82-2.53s1.75-.91,2.22-.91ZM245.79,178.73c0,.54.13,1.08.4,1.62,1.42,2.29,4.67,3.44,9.76,3.44s9.94-.84,14.56-2.53c4.62-1.69,9.12-4.16,13.5-7.43,4.38-3.27,7.99-7.2,10.82-11.78-17.66,0-31.21,2.73-40.65,8.19-5.6,3.24-8.39,6.07-8.39,8.49Z"/>
    <path class="cls-1" d="M339.93,111.08c4.92,0,7.38,3.1,7.38,9.3,0,2.83-.74,5.87-2.22,9.1-1.89,4.38-4.72,8.36-8.49,11.93.88,1.69,2.46,2.53,4.75,2.53,1.82,0,3.54-.91,5.16-2.73,2.02-2.09,3.47-3.93,4.35-5.51.88-1.58,1.52-2.75,1.92-3.49.4-.74.93-1.8,1.57-3.19.64-1.38,1.03-2.22,1.16-2.53.13-.3.37-.45.71-.45.67-.07,1.01.17,1.01.71,0,.2-.07.44-.2.71l-.61,1.42c-.4.95-.71,1.62-.91,2.02-.2.4-.56,1.13-1.06,2.17-.51,1.05-.95,1.87-1.31,2.48-.37.61-.88,1.42-1.52,2.43-.64,1.01-1.21,1.82-1.72,2.43s-1.13,1.28-1.87,2.02c-.74.74-1.45,1.31-2.12,1.72-1.69,1.01-3.27,1.52-4.75,1.52-2.77,0-4.92-.87-6.47-2.63-3.1,2.29-5.97,3.44-8.59,3.44-4.92,0-7.38-3.1-7.38-9.3,0-2.83.74-5.87,2.22-9.1,2.02-4.72,4.87-8.73,8.54-12.03,3.67-3.3,7.16-4.96,10.47-4.96ZM341.05,114.22c-1.82,0-3.98,1.21-6.47,3.64-2.5,2.43-4.72,5.73-6.67,9.91-2.36,4.85-3.54,8.83-3.54,11.93s1.18,4.65,3.54,4.65c1.68,0,3.57-.91,5.66-2.73-1.08-1.55-1.62-3.2-1.62-4.96.13-2.9,1.31-4.35,3.54-4.35.88,0,1.6.3,2.17.91.57.61.86,1.16.86,1.67s-.07,1.03-.2,1.57c1.15-1.68,2.46-4.08,3.94-7.18,1.68-3.44,2.53-6.81,2.53-10.11s-1.25-4.95-3.74-4.95Z"/>
    <path class="cls-1" d="M373.4,141.93c0,1.89.67,2.83,2.02,2.83,3.17,0,7.65-5.93,13.45-17.8.47-.94.89-1.31,1.26-1.11.37.2.56.47.56.81s-.39,1.3-1.16,2.88c-.78,1.58-1.55,3.1-2.33,4.55-.78,1.45-1.91,3.35-3.39,5.71-3.1,4.72-6.41,7.08-9.91,7.08-2.29,0-4.11-.94-5.46-2.83-.61-.87-.91-2.07-.91-3.59s.34-3.35,1.01-5.51c.67-2.16,2.53-5.66,5.56-10.52.74-1.21,1.11-2.17,1.11-2.88s-.57-1.06-1.72-1.06-3.34,1.52-6.57,4.55c-4.85,4.45-9.57,11.12-14.16,20.02-.47,1.01-1.72,1.52-3.74,1.52-1.82.13-2.97.34-3.44.61,12.81-26.63,22.08-45.2,27.81-55.72,1.28-2.36,2.41-4.01,3.39-4.96.98-.94,2.14-1.42,3.49-1.42.34,0,1.04.09,2.12.25,1.08.17,1.89.22,2.43.15-2.02,2.09-5.65,7.87-10.87,17.34-5.22,9.47-10.23,19.1-15.02,28.87,3.17-3.98,6.02-7.08,8.54-9.3,2.53-2.22,5.61-4.33,9.25-6.32,3.64-1.99,6.3-2.98,7.99-2.98.4,0,.77.07,1.11.2-8.29,14.56-12.44,24.1-12.44,28.62Z"/>
    <path class="cls-1" d="M385.44,140.61c0-2.9,1.25-6.4,3.74-10.52-1.08,0-1.38-.54-.91-1.62l1.82-3.54c2.29-4.38,4.18-8.09,5.66-11.12.67-1.42,1.99-2.12,3.94-2.12h6.17c-2.43,1.75-4.87,5.14-7.33,10.16-2.46,5.02-4.37,8.97-5.71,11.83-1.35,2.87-2.02,5.04-2.02,6.52s.25,2.53.76,3.14c.51.61,1.2.91,2.07.91,1.28,0,3.07-1.35,5.36-4.05,3.57-4.18,8.6-12.98,15.07-26.39.74-1.42,2.06-2.12,3.94-2.12h5.46c-1.48,1.15-2.65,2.33-3.49,3.54-.84,1.21-2.01,3.37-3.49,6.47-4.04,8.09-6.3,13.45-6.77,16.08-.2.94-.3,1.82-.3,2.63,0,2.16.74,3.3,2.22,3.44,3.64,0,8.12-5.63,13.45-16.89.4-.94.81-1.31,1.21-1.11.4.2.61.47.61.81s-.3,1.11-.91,2.33-1.2,2.39-1.77,3.54c-.57,1.15-1.45,2.71-2.63,4.7-1.18,1.99-2.28,3.56-3.29,4.7-2.63,2.97-5.21,4.45-7.74,4.45s-4.26-1.11-5.21-3.34c-.4-1.01-.61-2.29-.61-3.84s.34-3.47,1.01-5.76c-4.92,8.63-9.47,12.94-13.65,12.94-3.64,0-5.76-1.52-6.37-4.55-.2-.34-.3-.74-.3-1.21Z"/>
    <path class="cls-1" d="M450.66,127.32c-2.22,4.28-3.56,7.48-3.99,9.61-.44,2.12-.66,3.84-.66,5.16s.51,1.97,1.52,1.97c1.28,0,2.86-1.18,4.75-3.54,2.76-3.44,5.49-7.92,8.19-13.45.27-.61.57-.94.91-1.01.54-.2.81,0,.81.61,0,.34-.1.74-.3,1.21-6.2,12.54-11.43,18.81-15.67,18.81-1.96,0-3.54-.94-4.75-2.83-.61-1.01-.91-2.36-.91-4.04s.34-3.74,1.01-6.17c-5.39,8.7-10.05,13.04-13.95,13.04-1.08,0-2.06-.34-2.93-1.01-2.02-1.42-3.03-3.84-3.03-7.28,0-6.61,2.86-13.31,8.59-20.12,3.24-3.77,7.21-6.23,11.93-7.38,1.28-.34,2.49-.51,3.64-.51,3.1,0,5.73,1.08,7.89,3.24.67.74.87,1.45.61,2.12-.27.67-.84.94-1.72.81-.74-2.43-2.36-3.64-4.85-3.64-2.9,0-6.47,2.29-10.72,6.88-2.43,2.7-4.69,5.87-6.77,9.51-2.63,4.38-3.94,7.89-3.94,10.52s.84,3.94,2.53,3.94c4.05,0,9.34-6.2,15.88-18.61,1.28-2.49,2.36-4.2,3.24-5.11.88-.91,1.99-1.36,3.34-1.36.27,0,.96.1,2.07.3,1.11.2,1.94.24,2.48.1-1.21,1.21-2.93,3.96-5.16,8.24Z"/>
    <path class="cls-1" d="M465.12,129.74c-.54,1.59-1,3.1-1.37,4.55-.37,1.45-.56,2.9-.56,4.35s.34,2.8,1.01,4.04c.67,1.25,1.75,1.87,3.24,1.87,2.43,0,4.79-1.63,7.08-4.9,2.29-3.27,4.72-7.43,7.28-12.49.54-.94,1.04-1.31,1.52-1.11.34.27.4.62.2,1.06-.2.44-.62,1.38-1.26,2.83-.64,1.45-1.11,2.46-1.42,3.03-.3.57-.84,1.59-1.62,3.03-.78,1.45-1.45,2.53-2.02,3.24-.57.71-1.35,1.62-2.33,2.73-.98,1.11-1.91,1.94-2.78,2.48-2.36,1.48-4.58,2.22-6.67,2.22s-3.71-.45-4.85-1.36c-1.15-.91-1.84-1.89-2.07-2.93-.24-1.04-.35-1.97-.35-2.78s.03-1.85.1-3.13c.2-2.16.62-4.25,1.26-6.27.64-2.02.99-3.17,1.06-3.44,1.55-5.6,3.76-11.7,6.62-18.3,2.86-6.61,5.29-11.58,7.28-14.91,1.99-3.34,3.56-5.61,4.7-6.83,2.29-2.43,4.55-3.64,6.77-3.64,1.55,0,2.59,1.11,3.14,3.34.07.4.1.91.1,1.52,0,2.29-.81,5.19-2.43,8.7-5.8,12.88-12.71,22.99-20.73,30.34-.07.27-.37,1.2-.91,2.78ZM477.05,110.48c3.37-5.32,5.85-9.86,7.43-13.6,1.58-3.74,2.38-6.29,2.38-7.63s-.24-2.02-.71-2.02c-.67,0-1.96,1.33-3.84,3.99-1.89,2.66-4.43,7.45-7.63,14.36-3.2,6.91-5.81,12.96-7.84,18.15,3.44-3.5,6.84-7.92,10.21-13.25Z"/>
    <path class="cls-1" d="M486.55,129.74c-.54,1.59-1,3.1-1.37,4.55-.37,1.45-.56,2.9-.56,4.35s.34,2.8,1.01,4.04c.67,1.25,1.75,1.87,3.24,1.87,2.43,0,4.79-1.63,7.08-4.9,2.29-3.27,4.72-7.43,7.28-12.49.54-.94,1.04-1.31,1.52-1.11.34.27.4.62.2,1.06-.2.44-.62,1.38-1.26,2.83-.64,1.45-1.11,2.46-1.42,3.03-.3.57-.84,1.59-1.62,3.03-.78,1.45-1.45,2.53-2.02,3.24-.57.71-1.35,1.62-2.33,2.73-.98,1.11-1.91,1.94-2.78,2.48-2.36,1.48-4.58,2.22-6.67,2.22s-3.71-.45-4.85-1.36c-1.15-.91-1.84-1.89-2.07-2.93-.24-1.04-.35-1.97-.35-2.78s.03-1.85.1-3.13c.2-2.16.62-4.25,1.26-6.27.64-2.02.99-3.17,1.06-3.44,1.55-5.6,3.76-11.7,6.62-18.3,2.86-6.61,5.29-11.58,7.28-14.91,1.99-3.34,3.56-5.61,4.7-6.83,2.29-2.43,4.55-3.64,6.77-3.64,1.55,0,2.59,1.11,3.14,3.34.07.4.1.91.1,1.52,0,2.29-.81,5.19-2.43,8.7-5.8,12.88-12.71,22.99-20.73,30.34-.07.27-.37,1.2-.91,2.78ZM498.49,110.48c3.37-5.32,5.85-9.86,7.43-13.6,1.58-3.74,2.38-6.29,2.38-7.63s-.24-2.02-.71-2.02c-.67,0-1.96,1.33-3.84,3.99-1.89,2.66-4.43,7.45-7.63,14.36-3.2,6.91-5.81,12.96-7.84,18.15,3.44-3.5,6.84-7.92,10.21-13.25Z"/>
    <path class="cls-1" d="M507.28,144.25c1.28,0,2.63-.64,4.04-1.92,2.49-2.49,5.66-7.58,9.51-15.27.47-1.01.94-1.31,1.42-.91.13.14.2.35.2.66s-.27,1.05-.81,2.22c-.54,1.18-1.03,2.24-1.47,3.19-.44.95-1.28,2.48-2.53,4.6-1.25,2.12-2.38,3.76-3.39,4.9-2.77,3.17-5.38,4.75-7.84,4.75s-4.23-.74-5.31-2.22c-1.08-1.48-1.62-3.13-1.62-4.96s.44-3.81,1.31-5.97l6.47-16.48c.13-.4.2-.94.2-1.62s-.4-1.55-1.21-2.63l5.56-.1c1.55,0,2.46.29,2.73.86.27.57.07,1.47-.61,2.68l-8.09,18.91c-1.15,2.49-1.72,4.62-1.72,6.37,0,1.96,1.04,2.93,3.14,2.93ZM517.19,107.14c-.94.81-1.99,1.21-3.13,1.21s-2.06-.4-2.73-1.21c-.67-.81-.94-1.79-.81-2.93.2-1.15.77-2.12,1.72-2.93.94-.81,1.99-1.21,3.13-1.21s2.07.4,2.78,1.21c.71.81.96,1.79.76,2.93-.2,1.15-.78,2.12-1.72,2.93Z"/>
  </g>
</svg>