<?xml version="1.0" encoding="UTF-8"?>
<svg id="textos" xmlns="http://www.w3.org/2000/svg" xmlns:xlink="http://www.w3.org/1999/xlink" viewBox="0 0 786.33 589.71">
  <defs>
    <style>
      .cls-1 {
        filter: url(#drop-shadow-2);
      }

      .cls-2 {
        fill: #d2b488;
      }

      .cls-3 {
        fill: url(#linear-gradient-8);
      }

      .cls-4 {
        fill: url(#linear-gradient-7);
      }

      .cls-5 {
        fill: url(#linear-gradient-5);
      }

      .cls-6 {
        fill: url(#linear-gradient-6);
      }

      .cls-7 {
        fill: url(#linear-gradient-9);
      }

      .cls-8 {
        fill: url(#linear-gradient-4);
      }

      .cls-9 {
        fill: url(#linear-gradient-3);
      }

      .cls-10 {
        fill: url(#linear-gradient-2);
      }

      .cls-11 {
        fill: url(#linear-gradient);
      }

      .cls-12 {
        fill: url(#linear-gradient-10);
      }

      .cls-13 {
        fill: url(#linear-gradient-11);
      }

      .cls-14 {
        fill: url(#linear-gradient-12);
      }
    </style>
    <filter id="drop-shadow-2" x="-25.22" y="-15.52" width="847" height="552" filterUnits="userSpaceOnUse">
      <feOffset dx="5" dy="15"/>
      <feGaussianBlur result="blur" stdDeviation="10"/>
      <feFlood flood-color="#000" flood-opacity=".5"/>
      <feComposite in2="blur" operator="in"/>
      <feComposite in="SourceGraphic"/>
    </filter>
    <linearGradient id="linear-gradient" x1="196.22" y1="100.08" x2="614.8" y2="196.39" gradientUnits="userSpaceOnUse">
      <stop offset="0" stop-color="#f3debb"/>
      <stop offset=".15" stop-color="#f3debb"/>
      <stop offset=".35" stop-color="#e5c5a1"/>
      <stop offset=".61" stop-color="#d5a983"/>
      <stop offset=".72" stop-color="#a57b5d"/>
      <stop offset=".84" stop-color="#d5a983"/>
      <stop offset="1" stop-color="#f3debb"/>
    </linearGradient>
    <linearGradient id="linear-gradient-2" x1="199.94" y1="83.91" x2="618.52" y2="180.22" xlink:href="#linear-gradient"/>
    <linearGradient id="linear-gradient-3" x1="204.31" y1="64.94" x2="622.89" y2="161.25" xlink:href="#linear-gradient"/>
    <linearGradient id="linear-gradient-4" x1="209.07" y1="44.23" x2="627.65" y2="140.54" xlink:href="#linear-gradient"/>
    <linearGradient id="linear-gradient-5" x1="40.26" y1="364.41" x2="755.17" y2="445.91" xlink:href="#linear-gradient"/>
    <linearGradient id="linear-gradient-6" x1="40.66" y1="360.85" x2="755.58" y2="442.34" xlink:href="#linear-gradient"/>
    <linearGradient id="linear-gradient-7" x1="46.58" y1="308.96" x2="761.49" y2="390.45" xlink:href="#linear-gradient"/>
    <linearGradient id="linear-gradient-8" x1="43.36" y1="337.17" x2="758.28" y2="418.66" xlink:href="#linear-gradient"/>
    <linearGradient id="linear-gradient-9" x1="44.73" y1="325.14" x2="759.65" y2="406.63" xlink:href="#linear-gradient"/>
    <linearGradient id="linear-gradient-10" x1="50.67" y1="273.04" x2="765.59" y2="354.53" xlink:href="#linear-gradient"/>
    <linearGradient id="linear-gradient-11" x1="51.34" y1="267.2" x2="766.25" y2="348.7" xlink:href="#linear-gradient"/>
    <linearGradient id="linear-gradient-12" x1="49.57" y1="282.7" x2="764.48" y2="364.19" xlink:href="#linear-gradient"/>
  </defs>
  <g class="cls-1">
    <path class="cls-11" d="M383.12,3.74l-100.25,154.23c-7.01,9.81-14.26,19.32-21.73,28.51-7.48,9.19-15.35,17.37-23.6,24.54-8.26,7.16-16.98,12.89-26.17,17.18-9.19,4.28-18.93,6.43-29.21,6.43-5.14,0-10.09-.62-14.84-1.87-4.75-1.25-8.96-3.16-12.62-5.73-3.66-2.57-6.58-5.8-8.76-9.7-2.18-3.9-3.27-8.49-3.27-13.79,0-4.21.78-7.99,2.34-11.33,1.56-3.35,3.58-6.16,6.08-8.41,2.49-2.26,5.41-4.01,8.76-5.26,3.35-1.25,6.74-1.87,10.17-1.87s7.24.62,10.98,1.87c3.74,1.25,6.93,2.72,9.58,4.44l-.94,1.87c-2.65-1.09-5.38-2.1-8.18-3.04-2.81-.94-5.61-1.4-8.41-1.4-4.52,0-8.61,2.02-12.27,6.08-3.66,4.05-5.49,10.28-5.49,18.69s2.76,14.76,8.3,19.51c5.53,4.75,12.74,7.13,21.61,7.13,7.32,0,14.57-2.03,21.73-6.08,7.16-4.05,14.1-9.39,20.8-16.01,6.7-6.62,13.2-14.06,19.51-22.32,6.31-8.26,12.27-16.59,17.88-25,5.61-8.42,10.87-16.51,15.77-24.3,4.91-7.79,9.39-14.41,13.44-19.86l-.47-.47c-4.52,5.45-9.78,11.18-15.77,17.18-6,6-12.27,11.45-18.81,16.36-6.54,4.91-13.13,8.96-19.75,12.15-6.62,3.19-12.89,4.79-18.81,4.79-6.86,0-11.84-1.56-14.96-4.68-3.12-3.11-4.67-7.63-4.67-13.55,0-4.83,1.91-10.83,5.73-17.99,3.82-7.16,8.57-14.92,14.26-23.25,5.68-8.33,11.88-17.02,18.58-26.06,6.7-9.03,12.89-17.84,18.58-26.41,5.69-8.56,10.44-16.59,14.26-24.07,3.82-7.48,5.73-13.79,5.73-18.93,0-3.11-.97-5.64-2.92-7.59-1.95-1.95-4.79-2.92-8.53-2.92-6.54,0-13.79,1.72-21.73,5.14-7.95,3.43-15.39,8.03-22.32,13.79-6.93,5.77-12.74,12.31-17.41,19.63-4.67,7.32-7.01,14.88-7.01,22.67,0,4.83,1.13,8.84,3.39,12.03,2.26,3.19,5.8,4.79,10.63,4.79,3.58,0,6.85-.47,9.81-1.4,2.96-.94,5.64-2.22,8.06-3.85,2.41-1.64,4.63-3.54,6.66-5.73,2.02-2.18,3.97-4.44,5.84-6.78l1.87.23c-3.58,5.45-8.14,10.21-13.67,14.25-5.53,4.05-12.03,6.08-19.51,6.08-6.54,0-11.22-2.06-14.02-6.19-2.81-4.12-4.21-8.76-4.21-13.9,0-7.17,2.41-14.49,7.24-21.97,4.83-7.48,10.9-14.29,18.23-20.45,7.32-6.15,15.38-11.22,24.19-15.19,8.8-3.97,17.25-5.96,25.35-5.96,7.48,0,13.12,1.52,16.94,4.55,3.81,3.04,5.72,8.06,5.72,15.07,0,4.83-1.91,10.91-5.72,18.23-3.82,7.32-8.57,15.23-14.26,23.72-5.69,8.49-11.88,17.29-18.58,26.41-6.7,9.12-12.89,17.88-18.58,26.29-5.69,8.41-10.44,16.2-14.25,23.37-3.82,7.17-5.73,13.01-5.73,17.53,0,4.05.94,6.78,2.8,8.18,1.87,1.4,3.82,2.1,5.84,2.1,4.98,0,11.06-1.83,18.23-5.49,7.16-3.66,14.61-8.61,22.32-14.84s15.34-13.47,22.9-21.73c7.55-8.26,14.37-16.98,20.45-26.17L367.22,3.74h15.89Z"/>
    <path class="cls-10" d="M418.87,86h15.19c-5.77,8.1-11.3,15.97-16.59,23.6-5.3,7.64-10.01,14.68-14.14,21.15-4.13,6.47-7.44,12.15-9.93,17.06-2.49,4.91-3.74,8.76-3.74,11.57,0,4.05,2.1,6.08,6.31,6.08,3.27,0,7.44-1.59,12.5-4.79,5.06-3.19,10.55-7.59,16.47-13.2,5.92-5.61,12-12.15,18.23-19.63,6.23-7.48,12.15-15.42,17.76-23.83l1.4.47c-4.21,6.39-9.15,13.28-14.84,20.68-5.69,7.4-11.65,14.29-17.88,20.68-6.23,6.39-12.46,11.72-18.69,16.01-6.23,4.29-12.07,6.43-17.53,6.43-4.52,0-7.83-1.13-9.93-3.39-2.1-2.26-3.16-4.94-3.16-8.06,0-2.18.35-4.32,1.05-6.42.7-2.1,1.44-4.24,2.22-6.43l-.47-.23c-2.03,2.18-4.56,4.72-7.6,7.6-3.04,2.88-6.31,5.57-9.81,8.06-3.51,2.49-7.13,4.6-10.87,6.31-3.74,1.71-7.32,2.57-10.75,2.57-5.77,0-9.82-1.79-12.15-5.38-2.34-3.58-3.51-7.63-3.51-12.15,0-6.39,2.02-13.44,6.08-21.15,4.05-7.71,9.19-14.96,15.42-21.73,6.23-6.78,13.01-12.42,20.33-16.94,7.32-4.52,14.25-6.78,20.8-6.78,3.12,0,5.84.43,8.18,1.28,2.34.86,4.28,2.03,5.84,3.51,1.55,1.48,2.76,3.15,3.62,5.02.85,1.87,1.52,3.82,1.99,5.84h.47l7.71-13.79ZM342.45,151.42c0,3.59.74,6.35,2.22,8.3,1.48,1.95,3.54,2.92,6.19,2.92s5.76-.97,9.35-2.92c3.58-1.95,7.32-4.56,11.22-7.83,3.89-3.27,7.75-7.05,11.57-11.33,3.82-4.28,7.2-8.84,10.16-13.67,2.96-4.83,5.38-9.73,7.24-14.72,1.87-4.98,2.81-9.73,2.81-14.25,0-3.58-1.02-6.31-3.04-8.18-2.03-1.87-4.52-2.81-7.48-2.81-4.67,0-9.89,2.03-15.66,6.08-5.77,4.05-11.22,9.23-16.36,15.54-5.14,6.31-9.46,13.28-12.97,20.92-3.51,7.64-5.26,14.96-5.26,21.96Z"/>
    <path class="cls-9" d="M484.06,86l-29.68,43.23.47.47c2.18-2.65,4.94-5.73,8.3-9.23,3.35-3.5,7.01-7.09,10.98-10.75,3.97-3.66,8.14-7.28,12.5-10.87,4.36-3.58,8.65-6.78,12.85-9.58.78-1.56,1.64-2.81,2.57-3.74.94-.94,2.81-1.4,5.61-1.4,1.71,0,3.23.04,4.56.12,1.32.08,2.69.2,4.09.35-2.65,2.65-5.22,5.88-7.71,9.7-2.49,3.82-3.74,7.98-3.74,12.5,0,3.59.89,6.39,2.69,8.42,1.79,2.03,4.01,3.04,6.66,3.04,2.34,0,4.63-.47,6.89-1.4,2.26-.94,4.4-2.1,6.43-3.51,2.02-1.4,3.97-2.88,5.84-4.44,1.87-1.56,3.51-2.96,4.91-4.21l1.4.94c-1.56,1.56-3.35,3.23-5.38,5.02-2.03,1.79-4.21,3.47-6.54,5.02-2.34,1.56-4.83,2.84-7.48,3.86-2.65,1.01-5.38,1.52-8.18,1.52-4.99,0-9-1.52-12.03-4.56-3.04-3.04-4.56-7.28-4.56-12.74,0-3.74.85-7.09,2.57-10.05l-.47-.47c-6.39,4.36-13.4,10.09-21.03,17.18-7.64,7.09-15.74,15.46-24.3,25.12-3.12,3.43-6.35,7.95-9.7,13.55-3.35,5.61-6.27,11.38-8.76,17.29h-15.19c8.41-13.4,16.82-26.72,25.24-39.96,8.41-13.24,17.06-26.72,25.94-40.43h14.26Z"/>
    <path class="cls-8" d="M600.44,86h15.19c-5.77,8.1-11.3,15.97-16.59,23.6-5.3,7.64-10.01,14.68-14.14,21.15-4.13,6.47-7.44,12.15-9.93,17.06-2.49,4.91-3.74,8.76-3.74,11.57,0,4.05,2.1,6.08,6.31,6.08,3.27,0,7.44-1.59,12.5-4.79,5.06-3.19,10.55-7.59,16.47-13.2,5.92-5.61,12-12.15,18.23-19.63,6.23-7.48,12.15-15.42,17.76-23.83l1.4.47c-4.21,6.39-9.15,13.28-14.84,20.68-5.69,7.4-11.65,14.29-17.88,20.68-6.23,6.39-12.46,11.72-18.69,16.01-6.23,4.29-12.07,6.43-17.53,6.43-4.52,0-7.83-1.13-9.93-3.39-2.1-2.26-3.16-4.94-3.16-8.06,0-2.18.35-4.32,1.05-6.42.7-2.1,1.44-4.24,2.22-6.43l-.47-.23c-2.03,2.18-4.56,4.72-7.6,7.6-3.04,2.88-6.31,5.57-9.81,8.06-3.51,2.49-7.13,4.6-10.87,6.31-3.74,1.71-7.32,2.57-10.75,2.57-5.77,0-9.82-1.79-12.15-5.38-2.34-3.58-3.51-7.63-3.51-12.15,0-6.39,2.02-13.44,6.08-21.15,4.05-7.71,9.19-14.96,15.42-21.73,6.23-6.78,13.01-12.42,20.33-16.94,7.32-4.52,14.25-6.78,20.8-6.78,3.12,0,5.84.43,8.18,1.28,2.34.86,4.28,2.03,5.84,3.51,1.55,1.48,2.76,3.15,3.62,5.02.85,1.87,1.52,3.82,1.99,5.84h.47l7.71-13.79ZM524.02,151.42c0,3.59.74,6.35,2.22,8.3,1.48,1.95,3.54,2.92,6.19,2.92s5.76-.97,9.35-2.92c3.58-1.95,7.32-4.56,11.22-7.83,3.89-3.27,7.75-7.05,11.57-11.33,3.82-4.28,7.2-8.84,10.16-13.67,2.96-4.83,5.38-9.73,7.24-14.72,1.87-4.98,2.81-9.73,2.81-14.25,0-3.58-1.02-6.31-3.04-8.18-2.03-1.87-4.52-2.81-7.48-2.81-4.67,0-9.89,2.03-15.66,6.08-5.77,4.05-11.22,9.23-16.36,15.54-5.14,6.31-9.46,13.28-12.97,20.92-3.51,7.64-5.26,14.96-5.26,21.96Z"/>
    <path class="cls-5" d="M240.46,260.14l-100.25,154.23c-7.01,9.81-14.26,19.32-21.73,28.51-7.48,9.19-15.35,17.37-23.6,24.54-8.26,7.16-16.98,12.89-26.17,17.18-9.19,4.28-18.93,6.43-29.21,6.43-5.14,0-10.09-.62-14.84-1.87-4.75-1.25-8.96-3.16-12.62-5.73-3.66-2.57-6.58-5.8-8.76-9.7-2.18-3.9-3.27-8.49-3.27-13.79,0-4.21.78-7.99,2.34-11.33,1.56-3.35,3.58-6.16,6.08-8.41,2.49-2.26,5.41-4.01,8.76-5.26,3.35-1.25,6.74-1.87,10.17-1.87s7.24.62,10.98,1.87c3.74,1.25,6.93,2.72,9.58,4.44l-.94,1.87c-2.65-1.09-5.38-2.1-8.18-3.04-2.81-.94-5.61-1.4-8.41-1.4-4.52,0-8.61,2.02-12.27,6.08-3.66,4.05-5.49,10.28-5.49,18.69s2.76,14.76,8.3,19.51c5.53,4.75,12.74,7.13,21.61,7.13,7.32,0,14.57-2.03,21.73-6.08,7.16-4.05,14.1-9.39,20.8-16.01,6.7-6.62,13.2-14.06,19.51-22.32,6.31-8.26,12.27-16.59,17.88-25,5.61-8.42,10.87-16.51,15.77-24.3,4.91-7.79,9.39-14.41,13.44-19.86l-.47-.47c-4.52,5.45-9.78,11.18-15.77,17.18-6,6-12.27,11.45-18.81,16.36-6.54,4.91-13.13,8.96-19.75,12.15-6.62,3.19-12.89,4.79-18.81,4.79-6.86,0-11.84-1.56-14.96-4.68-3.12-3.11-4.67-7.63-4.67-13.55,0-4.83,1.91-10.83,5.73-17.99,3.82-7.16,8.57-14.92,14.26-23.25,5.68-8.33,11.88-17.02,18.58-26.06,6.7-9.03,12.89-17.84,18.58-26.41,5.69-8.56,10.44-16.59,14.26-24.07,3.82-7.48,5.73-13.79,5.73-18.93,0-3.11-.97-5.64-2.92-7.59-1.95-1.95-4.79-2.92-8.53-2.92-6.54,0-13.79,1.72-21.73,5.14-7.95,3.43-15.39,8.03-22.32,13.79-6.93,5.77-12.74,12.31-17.41,19.63-4.67,7.32-7.01,14.88-7.01,22.67,0,4.83,1.13,8.84,3.39,12.03,2.26,3.19,5.8,4.79,10.63,4.79,3.58,0,6.85-.47,9.81-1.4,2.96-.94,5.64-2.22,8.06-3.85,2.41-1.64,4.63-3.54,6.66-5.73,2.02-2.18,3.97-4.44,5.84-6.78l1.87.23c-3.58,5.45-8.14,10.21-13.67,14.25-5.53,4.05-12.03,6.08-19.51,6.08-6.54,0-11.22-2.06-14.02-6.19-2.81-4.12-4.21-8.76-4.21-13.9,0-7.17,2.41-14.49,7.24-21.97,4.83-7.48,10.9-14.29,18.23-20.45,7.32-6.15,15.38-11.22,24.19-15.19,8.8-3.97,17.25-5.96,25.35-5.96,7.48,0,13.12,1.52,16.94,4.55,3.81,3.04,5.72,8.06,5.72,15.07,0,4.83-1.91,10.91-5.72,18.23-3.82,7.32-8.57,15.23-14.26,23.72-5.69,8.49-11.88,17.29-18.58,26.41-6.7,9.12-12.89,17.88-18.58,26.29-5.69,8.41-10.44,16.2-14.25,23.37-3.82,7.17-5.73,13.01-5.73,17.53,0,4.05.94,6.78,2.8,8.18,1.87,1.4,3.82,2.1,5.84,2.1,4.98,0,11.06-1.83,18.23-5.49,7.16-3.66,14.61-8.61,22.32-14.84,7.71-6.23,15.34-13.47,22.9-21.73,7.55-8.26,14.37-16.98,20.45-26.17l60.99-93.48h15.89Z"/>
    <path class="cls-6" d="M318.74,363.66c-3.74,4.21-7.94,7.56-12.62,10.05-4.67,2.49-9.27,3.74-13.79,3.74s-8.1-.97-11.22-2.92c-3.12-1.95-5.53-4.24-7.24-6.89h-.47c-1.56,5.92-4.44,12.23-8.65,18.93-4.21,6.7-9.23,12.85-15.07,18.46-5.84,5.61-12.27,10.28-19.28,14.02-7.01,3.74-14.18,5.61-21.5,5.61-6.7,0-11.76-1.95-15.19-5.84-3.43-3.89-5.14-9.12-5.14-15.66,0-3.43.86-7.4,2.57-11.92,1.71-4.52,4.09-9.07,7.13-13.67s6.62-9.12,10.75-13.56c4.13-4.44,8.61-8.41,13.44-11.92,4.83-3.51,9.93-6.31,15.31-8.41,5.37-2.1,10.79-3.15,16.24-3.15,6.39,0,11.33,1.87,14.84,5.61,3.5,3.74,5.41,8.57,5.72,14.49.31,3.59,1.99,6.89,5.03,9.93,3.04,3.04,7.2,4.55,12.5,4.55,4.68,0,9.07-1.17,13.2-3.5,4.13-2.34,7.98-5.38,11.57-9.12l1.87,1.17ZM201.2,408.76c0,4.05.78,7.25,2.34,9.58,1.55,2.34,3.89,3.51,7.01,3.51,4.21,0,8.37-1.13,12.5-3.39,4.13-2.26,8.1-5.22,11.92-8.88,3.82-3.66,7.36-7.83,10.63-12.5,3.27-4.68,6.11-9.5,8.53-14.49,2.41-4.99,4.32-9.85,5.73-14.61,1.4-4.75,2.1-9.07,2.1-12.97,0-3.27-.82-6.03-2.45-8.29-1.64-2.26-4.17-3.39-7.59-3.39s-6.78,1.05-10.51,3.16c-3.74,2.1-7.52,4.87-11.33,8.29-3.82,3.43-7.44,7.4-10.87,11.92-3.43,4.52-6.51,9.19-9.23,14.02-2.73,4.83-4.87,9.66-6.43,14.49-1.56,4.83-2.34,9.35-2.34,13.55Z"/>
    <path class="cls-4" d="M395.62,261.08l-82.72,122.92.47.47c3.11-3.89,6.78-8.37,10.98-13.44,4.21-5.06,8.76-9.85,13.67-14.37,4.91-4.52,10.09-8.33,15.54-11.45,5.45-3.11,10.9-4.67,16.36-4.67,9.5,0,14.26,4.75,14.26,14.25,0,2.49-.9,5.45-2.69,8.88-1.79,3.43-4.05,7.05-6.78,10.87-2.73,3.82-5.65,7.68-8.76,11.57-3.12,3.9-6.04,7.67-8.76,11.33-2.73,3.66-4.99,7.09-6.78,10.28-1.79,3.19-2.69,5.88-2.69,8.06,0,1.72.5,3.15,1.52,4.32,1.01,1.17,2.37,1.75,4.09,1.75,3.58,0,7.51-1.13,11.8-3.39,4.28-2.26,8.72-5.22,13.32-8.88,4.59-3.66,9.15-7.75,13.67-12.27,4.52-4.52,8.68-9,12.5-13.44,3.82-4.44,7.24-8.65,10.28-12.62,3.04-3.97,5.26-7.2,6.66-9.7l1.4.47c-1.72,2.96-4.13,6.54-7.24,10.75-3.12,4.21-6.66,8.65-10.63,13.32-3.97,4.67-8.26,9.31-12.85,13.9-4.6,4.6-9.19,8.73-13.79,12.38-4.6,3.66-9.15,6.62-13.67,8.88-4.52,2.26-8.73,3.39-12.62,3.39s-7.36-1.25-9.93-3.74c-2.57-2.49-3.86-5.92-3.86-10.28,0-3.12.9-6.54,2.69-10.28,1.79-3.74,4.05-7.51,6.78-11.33,2.72-3.82,5.64-7.63,8.76-11.45,3.11-3.82,6.03-7.44,8.76-10.87,2.72-3.42,4.98-6.58,6.78-9.46,1.79-2.88,2.69-5.33,2.69-7.36,0-2.49-.7-4.21-2.1-5.14-1.4-.94-3.12-1.4-5.14-1.4-3.9,0-8.22,1.45-12.97,4.32-4.75,2.89-9.66,6.66-14.72,11.33-5.06,4.68-10.09,9.93-15.07,15.77-4.99,5.84-9.7,11.72-14.14,17.64-4.44,5.92-8.34,11.53-11.68,16.83-3.35,5.3-5.96,9.81-7.83,13.55h-15.19c8.57-13.4,17.37-27.03,26.41-40.89,9.03-13.87,18.03-27.65,26.99-41.36,8.96-13.71,17.72-27.23,26.29-40.54,8.57-13.32,16.67-26.06,24.3-38.21l15.66-.7Z"/>
    <path class="cls-3" d="M447.5,342.4c-6.08,8.26-11.92,16.12-17.53,23.6-5.61,7.48-10.6,14.34-14.96,20.56-4.36,6.23-7.83,11.65-10.4,16.24-2.57,4.6-3.86,8.22-3.86,10.87,0,2.49.62,4.32,1.87,5.49,1.25,1.17,2.88,1.75,4.91,1.75,2.96,0,6.19-.94,9.7-2.81,3.51-1.87,7.09-4.28,10.75-7.24,3.66-2.96,7.24-6.23,10.75-9.82,3.51-3.58,6.78-7.13,9.81-10.63,3.04-3.51,5.69-6.74,7.95-9.7,2.26-2.96,3.93-5.29,5.02-7.01l20.56-31.31h16.13c-8.41,11.53-15.54,21.3-21.38,29.32-5.84,8.03-10.6,14.84-14.26,20.45-3.66,5.61-6.27,10.16-7.83,13.67-1.56,3.51-2.34,6.58-2.34,9.23,0,1.87.55,3.47,1.64,4.79,1.09,1.33,2.65,1.99,4.67,1.99,3.11,0,6.7-1.13,10.75-3.39,4.05-2.26,8.26-5.22,12.62-8.88,4.36-3.66,8.68-7.79,12.97-12.38,4.28-4.59,8.33-9.15,12.15-13.67,3.81-4.52,7.28-8.76,10.4-12.74,3.11-3.97,5.53-7.2,7.24-9.7l2.34.7c-1.87,2.65-4.36,6.04-7.48,10.16-3.12,4.13-6.62,8.49-10.52,13.09-3.9,4.6-8.03,9.27-12.38,14.02-4.36,4.75-8.84,9-13.44,12.74-4.6,3.74-9.11,6.82-13.55,9.23-4.44,2.42-8.61,3.62-12.5,3.62-4.36,0-7.83-1.21-10.4-3.62-2.57-2.41-3.86-5.64-3.86-9.7,0-3.11.5-6.11,1.52-9,1.01-2.88,1.75-4.71,2.22-5.49l-.47-.47c-3.27,3.74-6.7,7.32-10.28,10.75-3.58,3.43-7.17,6.43-10.75,9-3.58,2.57-7.21,4.64-10.87,6.19-3.66,1.55-7.29,2.34-10.87,2.34-4.99,0-8.57-1.13-10.75-3.39-2.18-2.26-3.27-4.94-3.27-8.06,0-3.89,1.05-8.1,3.15-12.62,2.1-4.52,5.03-9.58,8.76-15.19,3.74-5.61,8.22-11.92,13.44-18.93,5.22-7.01,10.94-15.03,17.18-24.07h15.42Z"/>
    <path class="cls-7" d="M587.47,342.4h15.19c-5.77,8.1-11.3,15.97-16.59,23.6-5.3,7.64-10.01,14.68-14.14,21.15-4.13,6.47-7.44,12.15-9.93,17.06-2.49,4.91-3.74,8.76-3.74,11.57,0,4.05,2.1,6.08,6.31,6.08,3.27,0,7.44-1.59,12.5-4.79,5.06-3.19,10.55-7.59,16.47-13.2,5.92-5.61,12-12.15,18.23-19.63,6.23-7.48,12.15-15.42,17.76-23.83l1.4.47c-4.21,6.39-9.15,13.28-14.84,20.68-5.69,7.4-11.65,14.29-17.88,20.68-6.23,6.39-12.46,11.72-18.69,16.01-6.23,4.29-12.07,6.43-17.53,6.43-4.52,0-7.83-1.13-9.93-3.39-2.1-2.26-3.16-4.94-3.16-8.06,0-2.18.35-4.32,1.05-6.42.7-2.1,1.44-4.24,2.22-6.43l-.47-.23c-2.03,2.18-4.56,4.72-7.6,7.6-3.04,2.88-6.31,5.57-9.81,8.06-3.51,2.49-7.13,4.6-10.87,6.31-3.74,1.71-7.32,2.57-10.75,2.57-5.77,0-9.82-1.79-12.15-5.38-2.34-3.58-3.51-7.63-3.51-12.15,0-6.39,2.02-13.44,6.08-21.15,4.05-7.71,9.19-14.96,15.42-21.73,6.23-6.78,13.01-12.42,20.33-16.94,7.32-4.52,14.25-6.78,20.8-6.78,3.12,0,5.84.43,8.18,1.28,2.34.86,4.28,2.03,5.84,3.51,1.55,1.48,2.76,3.15,3.62,5.02.85,1.87,1.52,3.82,1.99,5.84h.47l7.71-13.79ZM511.06,407.83c0,3.59.74,6.35,2.22,8.3,1.48,1.95,3.54,2.92,6.19,2.92s5.76-.97,9.35-2.92c3.58-1.95,7.32-4.56,11.22-7.83,3.89-3.27,7.75-7.05,11.57-11.33,3.82-4.28,7.2-8.84,10.16-13.67,2.96-4.83,5.38-9.73,7.24-14.72,1.87-4.98,2.81-9.73,2.81-14.25,0-3.58-1.02-6.31-3.04-8.18-2.03-1.87-4.52-2.81-7.48-2.81-4.67,0-9.89,2.03-15.66,6.08-5.77,4.05-11.22,9.23-16.36,15.54-5.14,6.31-9.46,13.28-12.97,20.92-3.51,7.64-5.26,14.96-5.26,21.96Z"/>
    <path class="cls-12" d="M707.11,260.14c-13.87,21.03-25.94,39.22-36.22,54.57-10.28,15.35-19.09,28.47-26.41,39.38-7.32,10.91-13.32,19.9-17.99,26.99-4.67,7.09-8.34,12.89-10.98,17.41-2.65,4.52-4.48,8.1-5.49,10.75-1.02,2.65-1.52,4.91-1.52,6.78,0,3.9,1.71,5.84,5.14,5.84,3.89,0,8.45-1.59,13.67-4.79,5.22-3.19,10.83-7.56,16.83-13.09,6-5.53,12.11-11.99,18.34-19.4,6.23-7.39,12.31-15.31,18.23-23.72l2.57.94c-5.61,7.95-11.53,15.62-17.76,23.02-6.23,7.4-12.23,13.83-17.99,19.28-7.63,7.17-14.22,12.38-19.75,15.66-5.53,3.27-10.56,4.91-15.07,4.91-4.83,0-8.29-1.09-10.4-3.27-2.1-2.18-3.15-5.06-3.15-8.65,0-3.27.58-6.66,1.75-10.16,1.17-3.51,3.15-7.71,5.96-12.62,2.8-4.91,6.5-10.87,11.1-17.88,4.59-7.01,10.28-15.62,17.06-25.82,6.78-10.2,14.76-22.35,23.95-36.45,9.19-14.1,19.78-30.65,31.78-49.66h16.36Z"/>
    <path class="cls-13" d="M758.99,260.14c-13.87,21.03-25.94,39.22-36.22,54.57-10.28,15.35-19.09,28.47-26.41,39.38-7.32,10.91-13.32,19.9-17.99,26.99-4.67,7.09-8.34,12.89-10.98,17.41-2.65,4.52-4.48,8.1-5.49,10.75-1.02,2.65-1.52,4.91-1.52,6.78,0,3.9,1.71,5.84,5.14,5.84,3.89,0,8.45-1.59,13.67-4.79,5.22-3.19,10.83-7.56,16.83-13.09,6-5.53,12.11-11.99,18.34-19.4,6.23-7.39,12.31-15.31,18.23-23.72l2.57.94c-5.61,7.95-11.53,15.62-17.76,23.02-6.23,7.4-12.23,13.83-17.99,19.28-7.63,7.17-14.22,12.38-19.75,15.66-5.53,3.27-10.56,4.91-15.07,4.91-4.83,0-8.29-1.09-10.4-3.27-2.1-2.18-3.15-5.06-3.15-8.65,0-3.27.58-6.66,1.75-10.16,1.17-3.51,3.15-7.71,5.96-12.62,2.8-4.91,6.5-10.87,11.1-17.88,4.59-7.01,10.28-15.62,17.06-25.82,6.78-10.2,14.76-22.35,23.95-36.45,9.19-14.1,19.78-30.65,31.78-49.66h16.36Z"/>
    <path class="cls-14" d="M758.75,342.4c-8.57,12.31-15.81,22.67-21.73,31.08-5.92,8.42-10.71,15.42-14.37,21.03-3.66,5.61-6.31,10.05-7.95,13.32-1.64,3.27-2.45,5.92-2.45,7.95,0,4.05,1.64,6.08,4.91,6.08s6.74-1.13,10.87-3.39c4.13-2.26,8.45-5.18,12.97-8.76,4.52-3.58,9.03-7.63,13.55-12.15,4.52-4.52,8.76-9,12.74-13.44,3.97-4.44,7.48-8.72,10.51-12.85,3.04-4.13,5.26-7.51,6.66-10.16l1.87,1.17c-1.87,3.12-4.4,6.86-7.6,11.22-3.19,4.36-6.82,8.85-10.87,13.44-4.05,4.6-8.34,9.15-12.85,13.67-4.52,4.52-9.11,8.57-13.79,12.15-4.68,3.58-9.23,6.47-13.67,8.65-4.44,2.18-8.53,3.27-12.27,3.27-4.21,0-7.32-1.17-9.35-3.51-2.02-2.34-3.04-4.91-3.04-7.71,0-3.27.74-6.74,2.22-10.4,1.48-3.66,3.86-8.14,7.13-13.44,3.27-5.3,7.51-11.72,12.74-19.28,5.22-7.55,11.49-16.86,18.81-27.92h14.96ZM772.3,298.93c2.18,0,3.97.74,5.38,2.22,1.4,1.48,2.1,3.31,2.1,5.49s-.7,4.01-2.1,5.49c-1.4,1.48-3.19,2.22-5.38,2.22s-3.97-.74-5.37-2.22c-1.4-1.48-2.1-3.31-2.1-5.49s.7-4.01,2.1-5.49c1.4-1.48,3.19-2.22,5.37-2.22Z"/>
  </g>
  <g>
    <path class="cls-2" d="M199.88,559.61c-2.11,0-4.13,1.01-5.06,2.95l-.59-.59c.93-4.89,4.3-7.84,8.26-7.84.34,0,.67.08,1.1.08-.51-3.04-1.6-10.46-1.6-11.89,0-3.88,3.04-5.73,6.24-7.59l13.58-8.01c4.81,2.53,10.54,5.73,11.81,11.8,4.89-3.54,10.29-7.67,14.42-11.47,2.78,2.36,5.99,5.06,10.37,6.16l-.17,1.52c-1.6.67-3.79,1.69-3.79,5.23v33.31c0,3.96,2.53,5.4,4.38,5.82l1.86-2.11,1.27,1.01-8.18,10.2c-4.72-1.86-8.1-5.65-8.1-11.38v-16.36h-4.72v20.24c-3.29,2.11-6.58,5.06-9.19,7.5-2.36-2.19-6.91-5.31-10.37-6.24v-1.52c1.69-.59,3.63-1.77,3.63-4.05v-15.94h-5.82v9.28c0,8.94-3.54,18.47-11.64,18.47-2.19,0-4.05-.76-5.65-1.35-2.45-.93-3.63-1.27-4.64-1.27-1.1,0-2.36.42-3.12,1.35l-.67.76-1.18-1.1,4.05-5.23c1.69-2.19,3.79-3.54,6.66-3.54h.76c2.11-2.11,2.7-3.96,2.7-6.32,0-1.18-.59-6.16-.93-8.77-1.18-2.11-3.46-3.12-5.65-3.12ZM217.84,535.24c-1.18-.59-2.36-1.18-3.63-1.52-2.28,1.35-3.37,3.79-3.37,6.24s.51,4.97,1.1,8.69l2.02,12.65c.51,3.29.59,4.55.59,5.31,0,4.47-3.54,7.17-8.77,11.72,2.02.76,4.47,2.02,6.91,2.02,4.38,0,5.06-7.34,5.14-10.54v-34.57ZM225.01,554.71v-12.06c0-3.37-2.87-5.31-5.82-6.91v18.97h5.82ZM233.69,540.38v37.61c1.27,1.1,2.87,1.94,4.72,2.45l1.18-.76v-43.68l-5.9,4.38ZM245.75,554.71v-17.12c-1.86-.51-3.46-1.26-4.81-2.19v19.31h4.81Z"/>
    <path class="cls-2" d="M263.38,551.59l6.58-6.32,7.34,6.24-2.87,3.37v24.12c.84.59,2.28,1.52,3.2,2.53l1.94-1.35.67,1.27-7.67,5.99c-4.39-2.61-6.41-4.05-9.02-4.64v-1.43c1.94-.59,2.78-3.2,2.78-4.98v-21.84l-2.95-2.95ZM270.04,541.22l-1.01-.51,4.39-10.62h7.17v1.18l-10.54,9.95Z"/>
    <path class="cls-2" d="M284.46,551.43c5.31-1.43,10.03-3.54,13.74-6.32,1.35,1.18,4.64,3.79,7.59,3.79,2.45,0,3.46-2.7,3.37-4.89l1.18.17c0,3.04-1.35,5.06-3.37,7.5l-7.34,9.11c2.78,2.02,6.41,3.54,10.12,3.54l.17,1.18c-1.77,1.52-2.19,2.11-2.19,2.95v12.06c-4.47,1.26-9.19,3.71-13.66,7.67-1.6-2.11-6.07-5.4-9.61-5.4s-5.31,2.78-4.05,5.31l-1.18.59c-2.11-4.22,2.61-7.08,4.97-10.29l5.57-7.42c-2.45-1.18-5.06-2.7-7.84-3.46v-1.18c.84-.25,2.53-.84,2.53-2.11v-12.82ZM299.64,568.88c-1.86-.42-3.46-1.27-4.89-2.28l-9.11,12.23c4.81-1.43,10.71-.59,14,3.29v-13.24ZM302.68,554.88c-4.64.17-7.67-1.18-10.12-4.81v14.42l1.52.93,8.6-10.54Z"/>
    <path class="cls-2" d="M387.62,560.79c-.93,0-1.94.25-2.78.76l-.51-.67c.84-2.28,3.54-3.96,5.82-3.96.67,0,1.35.17,1.86.51l.25-1.94c-.67-1.52-2.28-2.19-4.13-2.19-2.11,0-4.47.93-5.99,2.53l-.51-.67c1.43-4.98,5.23-7.25,8.94-7.25.84,0,1.6.08,2.45.34.08-1.1.17-2.11.17-3.04,0-8.1-3.46-11.81-7.25-11.81-2.19,0-4.55,1.27-6.49,3.54l-.76-.67c2.7-4.55,8.26-8.1,13.91-8.1,4.55,0,8.1,3.54,8.69,9.78,5.06-2.78,10.37-7.67,13.74-11.21,2.95,2.53,7.59,6.16,12.73,7.25l-.08,1.52c-1.35.59-3.37,1.77-3.37,3.54v32.89c.76.59,1.6.93,2.7,1.27l-.25,1.52c-8.52,2.36-15.26,7.59-23.19,15.01-4.13-5.06-11.55-8.6-18.47-8.6-.67,0-1.26,0-1.94.08v-1.43c3.2-.34,8.01-9.87,8.85-16.19-.59-1.86-2.45-2.78-4.38-2.78ZM401.28,539.37c0,13.49-5.14,31.79-14.34,39.46,2.61-.93,5.23-1.35,7.84-1.35,5.65,0,10.96,2.11,14.08,5.14v-48.15c-2.78,1.94-5.06,3.37-7.59,4.89ZM415.53,538.19c-1.86-.42-3.63-1.18-5.31-2.61v46.38c1.6-1.26,3.29-2.45,5.31-3.79v-39.97Z"/>
    <path class="cls-2" d="M347.86,541.22c-1.18-5.31-3.63-7.59-6.58-7.59-1.6,0-3.37.67-5.14,2.02l-.84-1.1c3.63-3.96,8.1-6.58,12.4-6.58,3.63,0,6.66,2.28,7.93,7.67l2.53,10.79c1.77-5.99,4.47-15.35,8.94-19.39,2.19.59,4.39,2.78,6.66,2.78,1.27,0,2.19-1.43,2.61-2.53l1.18.59c-1.35,5.9-3.79,10.37-8.18,10.37-2.19,0-4.3-.84-6.07-2.11-2.02,4.47-3.2,8.94-4.38,12.99l.76,3.54h6.41c1.52,0,3.12,0,4.13-1.6l1.1.51-3.29,6.58c-.59,1.1-1.52,1.69-2.95,1.69h-3.79l3.04,11.55c.84,3.2,2.78,5.48,6.24,6.58l2.36-3.2,1.6.93-8.35,12.48c-4.55-1.94-8.26-5.73-9.78-10.96l-2.78-9.7c-1.77,5.99-5.4,16.53-9.44,20.32-2.36-.93-5.14-4.55-7.67-4.55-1.27,0-2.02.76-2.61,1.35l-.76.84-1.27-.93,1.86-2.87c1.77-2.78,4.38-6.75,8.35-6.75,2.28,0,4.38,1.52,6.07,3.04,1.77-4.13,3.37-8.35,4.64-13.15l-.84-5.06h-7.76c-1.35,0-2.11.51-2.95,1.52l-1.01-.59,3.29-6.24c.59-1.1,1.43-1.77,2.87-1.77h4.05l-2.53-11.47Z"/>
    <path class="cls-2" d="M488.87,588.36c-3.46-2.11-5.65-5.73-6.83-9.61l-3.46-11.05h-15.68l-2.87,7.76c3.79.25,6.41,1.77,9.28,4.05l2.53-3.04,1.01,1.01-9.02,10.88c-2.53-2.61-4.89-5.23-8.6-5.23s-6.41,1.86-7.42,5.9l-1.01-.42c1.26-7.59,5.56-12.99,11.64-13.15l2.7-7.76c-9.61-1.86-14.34-10.79-14.34-20.49,0-13.32,9.53-20.49,17.37-20.49,8.77,0,11.55,4.81,13.41,10.96.34-4.22,2.11-8.6,5.99-10.79l.76,1.1c-2.95,1.86-4.55,4.89-4.55,8.69,0,3.37,1.43,7.34,3.2,14.34l5.31,18.47c.93,3.2,2.19,7.76,5.73,9.11l2.45-3.63,1.43.93-7.17,10.37c-.51.76-1.35,1.6-1.86,2.11ZM461.64,566.44l2.02-5.4c-.51-2.53-2.19-4.97-3.96-4.97-.59,0-1.1.25-1.6.67l-.34-.67c1.27-1.94,2.87-2.7,4.39-2.7,1.6,0,3.12.93,3.79,2.11l.93-2.28c-.59-2.45-3.12-4.81-5.99-4.81-1.43,0-3.04.67-4.39,2.36l-.59-.59c1.94-4.13,4.98-6.24,7.84-6.24,2.02,0,3.88,1.01,5.23,3.04l1.77-4.89c-1.69-4.81-3.2-10.88-10.29-10.88-7.93,0-12.31,7.84-12.31,16.19s4.38,17.37,13.49,19.06ZM471.59,544.09l-6.41,17.96h11.55l-5.14-17.96Z"/>
    <path class="cls-2" d="M525.31,575.29c0,4.55.93,6.58,4.05,5.48l.25,1.27-8.43,5.48c-3.79-3.12-3.96-7.17-3.96-11.72v-20.83l-2.87-2.19-4.97,4.81v21.84l2.95,2.53-6.41,5.9-7.25-5.57,2.61-2.78v-23.02c0-2.61-1.52-5.14-4.22-3.88l-.51-1.1,6.41-6.32c4.55,1.18,6.41,5.9,6.41,10.29l10.12-10.2c2.61,3.2,5.31,5.14,7.93,4.55l.42,1.1c-1.26.51-2.53,2.11-2.53,3.88v20.49ZM523.7,533.21l-1.94,4.55c-.59,1.6-1.43,3.71-3.46,3.71-1.18,0-3.29-.59-4.55-1.1l-2.28-.93c-.93-.34-2.19-.76-3.12-.76-1.94,0-2.53,1.01-3.04,2.28l-.42.93-1.01-.42,2.19-4.64c.76-1.6,1.52-2.87,2.53-3.88h1.35c.59,0,1.26.17,3.63,1.18l2.78,1.1c1.86.76,2.78.84,3.29.84,1.01,0,1.94-.93,2.36-1.86l.67-1.26,1.01.25Z"/>
    <path class="cls-2" d="M546.56,544.85c4.47,2.53,9.36,5.23,15.18,6.16v1.27c-1.43.67-2.11,1.77-2.11,5.31v23.86l-12.31,6.41c-3.96-3.04-9.95-5.31-14.67-6.07v-1.26c1.6-.67,2.02-1.77,2.02-4.89v-23.7l11.89-7.08ZM542.76,578.07c3.46,1.1,6.16,2.53,8.77,4.72v-28.16c-3.2-.59-6.07-1.94-8.77-4.3v27.74Z"/>
    <path class="cls-2" d="M568.15,551.43c5.31-1.43,10.04-3.54,13.75-6.32,1.35,1.18,4.64,3.79,7.59,3.79,2.44,0,3.46-2.7,3.37-4.89l1.18.17c0,3.04-1.35,5.06-3.37,7.5l-7.34,9.11c2.78,2.02,6.41,3.54,10.12,3.54l.17,1.18c-1.77,1.52-2.19,2.11-2.19,2.95v12.06c-4.47,1.26-9.19,3.71-13.66,7.67-1.6-2.11-6.07-5.4-9.61-5.4s-5.31,2.78-4.05,5.31l-1.18.59c-2.11-4.22,2.61-7.08,4.98-10.29l5.56-7.42c-2.44-1.18-5.06-2.7-7.84-3.46v-1.18c.84-.25,2.53-.84,2.53-2.11v-12.82ZM583.32,568.88c-1.86-.42-3.46-1.27-4.89-2.28l-9.11,12.23c4.81-1.43,10.71-.59,14,3.29v-13.24ZM586.36,554.88c-4.64.17-7.67-1.18-10.12-4.81v14.42l1.52.93,8.6-10.54Z"/>
  </g>
</svg>